<?xml version="1.0" encoding="utf-8"?>
<svg xmlns="http://www.w3.org/2000/svg" xmlns:xlink="http://www.w3.org/1999/xlink" width="600" height="400" viewBox="0 0 2400 1600">
<defs>
  <clipPath id="clip640">
    <rect x="0" y="0" width="2400" height="1600"/>
  </clipPath>
</defs>
<path clip-path="url(#clip640)" d="M0 1600 L2400 1600 L2400 0 L0 0  Z" fill="#ffffff" fill-rule="evenodd" fill-opacity="1"/>
<defs>
  <clipPath id="clip641">
    <rect x="480" y="0" width="1681" height="1600"/>
  </clipPath>
</defs>
<path clip-path="url(#clip640)" d="M147.478 1486.45 L2352.76 1486.45 L2352.76 47.2441 L147.478 47.2441  Z" fill="#ffffff" fill-rule="evenodd" fill-opacity="1"/>
<defs>
  <clipPath id="clip642">
    <rect x="147" y="47" width="2206" height="1440"/>
  </clipPath>
</defs>
<polyline clip-path="url(#clip642)" style="stroke:#000000; stroke-linecap:round; stroke-linejoin:round; stroke-width:2; stroke-opacity:0.1; fill:none" points="308.732,1486.45 308.732,47.2441 "/>
<polyline clip-path="url(#clip642)" style="stroke:#000000; stroke-linecap:round; stroke-linejoin:round; stroke-width:2; stroke-opacity:0.1; fill:none" points="705.009,1486.45 705.009,47.2441 "/>
<polyline clip-path="url(#clip642)" style="stroke:#000000; stroke-linecap:round; stroke-linejoin:round; stroke-width:2; stroke-opacity:0.1; fill:none" points="1101.28,1486.45 1101.28,47.2441 "/>
<polyline clip-path="url(#clip642)" style="stroke:#000000; stroke-linecap:round; stroke-linejoin:round; stroke-width:2; stroke-opacity:0.1; fill:none" points="1497.56,1486.45 1497.56,47.2441 "/>
<polyline clip-path="url(#clip642)" style="stroke:#000000; stroke-linecap:round; stroke-linejoin:round; stroke-width:2; stroke-opacity:0.1; fill:none" points="1893.84,1486.45 1893.84,47.2441 "/>
<polyline clip-path="url(#clip642)" style="stroke:#000000; stroke-linecap:round; stroke-linejoin:round; stroke-width:2; stroke-opacity:0.1; fill:none" points="2290.11,1486.45 2290.11,47.2441 "/>
<polyline clip-path="url(#clip640)" style="stroke:#000000; stroke-linecap:round; stroke-linejoin:round; stroke-width:4; stroke-opacity:1; fill:none" points="147.478,1486.45 2352.76,1486.45 "/>
<polyline clip-path="url(#clip640)" style="stroke:#000000; stroke-linecap:round; stroke-linejoin:round; stroke-width:4; stroke-opacity:1; fill:none" points="308.732,1486.45 308.732,1467.55 "/>
<polyline clip-path="url(#clip640)" style="stroke:#000000; stroke-linecap:round; stroke-linejoin:round; stroke-width:4; stroke-opacity:1; fill:none" points="705.009,1486.45 705.009,1467.55 "/>
<polyline clip-path="url(#clip640)" style="stroke:#000000; stroke-linecap:round; stroke-linejoin:round; stroke-width:4; stroke-opacity:1; fill:none" points="1101.28,1486.45 1101.28,1467.55 "/>
<polyline clip-path="url(#clip640)" style="stroke:#000000; stroke-linecap:round; stroke-linejoin:round; stroke-width:4; stroke-opacity:1; fill:none" points="1497.56,1486.45 1497.56,1467.55 "/>
<polyline clip-path="url(#clip640)" style="stroke:#000000; stroke-linecap:round; stroke-linejoin:round; stroke-width:4; stroke-opacity:1; fill:none" points="1893.84,1486.45 1893.84,1467.55 "/>
<polyline clip-path="url(#clip640)" style="stroke:#000000; stroke-linecap:round; stroke-linejoin:round; stroke-width:4; stroke-opacity:1; fill:none" points="2290.11,1486.45 2290.11,1467.55 "/>
<path clip-path="url(#clip640)" d="M278.674 1532.02 L308.35 1532.02 L308.35 1535.95 L278.674 1535.95 L278.674 1532.02 Z" fill="#000000" fill-rule="nonzero" fill-opacity="1" /><path clip-path="url(#clip640)" d="M322.471 1544.91 L338.79 1544.91 L338.79 1548.85 L316.846 1548.85 L316.846 1544.91 Q319.508 1542.16 324.091 1537.53 Q328.697 1532.88 329.878 1531.53 Q332.123 1529.01 333.003 1527.27 Q333.906 1525.51 333.906 1523.82 Q333.906 1521.07 331.961 1519.33 Q330.04 1517.6 326.938 1517.6 Q324.739 1517.6 322.285 1518.36 Q319.855 1519.13 317.077 1520.68 L317.077 1515.95 Q319.901 1514.82 322.355 1514.24 Q324.809 1513.66 326.846 1513.66 Q332.216 1513.66 335.41 1516.35 Q338.605 1519.03 338.605 1523.52 Q338.605 1525.65 337.795 1527.57 Q337.008 1529.47 334.901 1532.07 Q334.322 1532.74 331.221 1535.95 Q328.119 1539.15 322.471 1544.91 Z" fill="#000000" fill-rule="nonzero" fill-opacity="1" /><path clip-path="url(#clip640)" d="M674.766 1532.02 L704.441 1532.02 L704.441 1535.95 L674.766 1535.95 L674.766 1532.02 Z" fill="#000000" fill-rule="nonzero" fill-opacity="1" /><path clip-path="url(#clip640)" d="M715.344 1544.91 L722.983 1544.91 L722.983 1518.55 L714.673 1520.21 L714.673 1515.95 L722.937 1514.29 L727.613 1514.29 L727.613 1544.91 L735.251 1544.91 L735.251 1548.85 L715.344 1548.85 L715.344 1544.91 Z" fill="#000000" fill-rule="nonzero" fill-opacity="1" /><path clip-path="url(#clip640)" d="M1101.28 1517.37 Q1097.67 1517.37 1095.85 1520.93 Q1094.04 1524.47 1094.04 1531.6 Q1094.04 1538.71 1095.85 1542.27 Q1097.67 1545.82 1101.28 1545.82 Q1104.92 1545.82 1106.72 1542.27 Q1108.55 1538.71 1108.55 1531.6 Q1108.55 1524.47 1106.72 1520.93 Q1104.92 1517.37 1101.28 1517.37 M1101.28 1513.66 Q1107.1 1513.66 1110.15 1518.27 Q1113.23 1522.85 1113.23 1531.6 Q1113.23 1540.33 1110.15 1544.94 Q1107.1 1549.52 1101.28 1549.52 Q1095.47 1549.52 1092.4 1544.94 Q1089.34 1540.33 1089.34 1531.6 Q1089.34 1522.85 1092.4 1518.27 Q1095.47 1513.66 1101.28 1513.66 Z" fill="#000000" fill-rule="nonzero" fill-opacity="1" /><path clip-path="url(#clip640)" d="M1487.94 1544.91 L1495.58 1544.91 L1495.58 1518.55 L1487.27 1520.21 L1487.27 1515.95 L1495.54 1514.29 L1500.21 1514.29 L1500.21 1544.91 L1507.85 1544.91 L1507.85 1548.85 L1487.94 1548.85 L1487.94 1544.91 Z" fill="#000000" fill-rule="nonzero" fill-opacity="1" /><path clip-path="url(#clip640)" d="M1888.49 1544.91 L1904.81 1544.91 L1904.81 1548.85 L1882.87 1548.85 L1882.87 1544.91 Q1885.53 1542.16 1890.11 1537.53 Q1894.72 1532.88 1895.9 1531.53 Q1898.14 1529.01 1899.02 1527.27 Q1899.93 1525.51 1899.93 1523.82 Q1899.93 1521.07 1897.98 1519.33 Q1896.06 1517.6 1892.96 1517.6 Q1890.76 1517.6 1888.31 1518.36 Q1885.87 1519.13 1883.1 1520.68 L1883.1 1515.95 Q1885.92 1514.82 1888.37 1514.24 Q1890.83 1513.66 1892.87 1513.66 Q1898.24 1513.66 1901.43 1516.35 Q1904.62 1519.03 1904.62 1523.52 Q1904.62 1525.65 1903.81 1527.57 Q1903.03 1529.47 1900.92 1532.07 Q1900.34 1532.74 1897.24 1535.95 Q1894.14 1539.15 1888.49 1544.91 Z" fill="#000000" fill-rule="nonzero" fill-opacity="1" /><path clip-path="url(#clip640)" d="M2294.36 1530.21 Q2297.72 1530.93 2299.59 1533.2 Q2301.49 1535.47 2301.49 1538.8 Q2301.49 1543.92 2297.97 1546.72 Q2294.45 1549.52 2287.97 1549.52 Q2285.8 1549.52 2283.48 1549.08 Q2281.19 1548.66 2278.74 1547.81 L2278.74 1543.29 Q2280.68 1544.43 2283 1545.01 Q2285.31 1545.58 2287.83 1545.58 Q2292.23 1545.58 2294.52 1543.85 Q2296.84 1542.11 2296.84 1538.8 Q2296.84 1535.75 2294.69 1534.03 Q2292.56 1532.3 2288.74 1532.3 L2284.71 1532.3 L2284.71 1528.45 L2288.92 1528.45 Q2292.37 1528.45 2294.2 1527.09 Q2296.03 1525.7 2296.03 1523.11 Q2296.03 1520.45 2294.13 1519.03 Q2292.26 1517.6 2288.74 1517.6 Q2286.82 1517.6 2284.62 1518.01 Q2282.42 1518.43 2279.78 1519.31 L2279.78 1515.14 Q2282.44 1514.4 2284.76 1514.03 Q2287.09 1513.66 2289.15 1513.66 Q2294.48 1513.66 2297.58 1516.09 Q2300.68 1518.5 2300.68 1522.62 Q2300.68 1525.49 2299.04 1527.48 Q2297.39 1529.45 2294.36 1530.21 Z" fill="#000000" fill-rule="nonzero" fill-opacity="1" /><polyline clip-path="url(#clip642)" style="stroke:#000000; stroke-linecap:round; stroke-linejoin:round; stroke-width:2; stroke-opacity:0.1; fill:none" points="147.478,1139.88 2352.76,1139.88 "/>
<polyline clip-path="url(#clip642)" style="stroke:#000000; stroke-linecap:round; stroke-linejoin:round; stroke-width:2; stroke-opacity:0.1; fill:none" points="147.478,777.812 2352.76,777.812 "/>
<polyline clip-path="url(#clip642)" style="stroke:#000000; stroke-linecap:round; stroke-linejoin:round; stroke-width:2; stroke-opacity:0.1; fill:none" points="147.478,415.748 2352.76,415.748 "/>
<polyline clip-path="url(#clip642)" style="stroke:#000000; stroke-linecap:round; stroke-linejoin:round; stroke-width:2; stroke-opacity:0.1; fill:none" points="147.478,53.6846 2352.76,53.6846 "/>
<polyline clip-path="url(#clip640)" style="stroke:#000000; stroke-linecap:round; stroke-linejoin:round; stroke-width:4; stroke-opacity:1; fill:none" points="147.478,1486.45 147.478,47.2441 "/>
<polyline clip-path="url(#clip640)" style="stroke:#000000; stroke-linecap:round; stroke-linejoin:round; stroke-width:4; stroke-opacity:1; fill:none" points="147.478,1139.88 166.376,1139.88 "/>
<polyline clip-path="url(#clip640)" style="stroke:#000000; stroke-linecap:round; stroke-linejoin:round; stroke-width:4; stroke-opacity:1; fill:none" points="147.478,777.812 166.376,777.812 "/>
<polyline clip-path="url(#clip640)" style="stroke:#000000; stroke-linecap:round; stroke-linejoin:round; stroke-width:4; stroke-opacity:1; fill:none" points="147.478,415.748 166.376,415.748 "/>
<polyline clip-path="url(#clip640)" style="stroke:#000000; stroke-linecap:round; stroke-linejoin:round; stroke-width:4; stroke-opacity:1; fill:none" points="147.478,53.6846 166.376,53.6846 "/>
<path clip-path="url(#clip640)" d="M50.9921 1140.33 L80.6679 1140.33 L80.6679 1144.26 L50.9921 1144.26 L50.9921 1140.33 Z" fill="#000000" fill-rule="nonzero" fill-opacity="1" /><path clip-path="url(#clip640)" d="M91.5706 1153.22 L99.2095 1153.22 L99.2095 1126.86 L90.8993 1128.52 L90.8993 1124.26 L99.1632 1122.6 L103.839 1122.6 L103.839 1153.22 L111.478 1153.22 L111.478 1157.16 L91.5706 1157.16 L91.5706 1153.22 Z" fill="#000000" fill-rule="nonzero" fill-opacity="1" /><path clip-path="url(#clip640)" d="M99.5335 763.611 Q95.9224 763.611 94.0937 767.176 Q92.2882 770.717 92.2882 777.847 Q92.2882 784.953 94.0937 788.518 Q95.9224 792.06 99.5335 792.06 Q103.168 792.06 104.973 788.518 Q106.802 784.953 106.802 777.847 Q106.802 770.717 104.973 767.176 Q103.168 763.611 99.5335 763.611 M99.5335 759.907 Q105.344 759.907 108.399 764.514 Q111.478 769.097 111.478 777.847 Q111.478 786.574 108.399 791.18 Q105.344 795.764 99.5335 795.764 Q93.7234 795.764 90.6447 791.18 Q87.5892 786.574 87.5892 777.847 Q87.5892 769.097 90.6447 764.514 Q93.7234 759.907 99.5335 759.907 Z" fill="#000000" fill-rule="nonzero" fill-opacity="1" /><path clip-path="url(#clip640)" d="M91.5706 429.093 L99.2095 429.093 L99.2095 402.728 L90.8993 404.394 L90.8993 400.135 L99.1632 398.468 L103.839 398.468 L103.839 429.093 L111.478 429.093 L111.478 433.028 L91.5706 433.028 L91.5706 429.093 Z" fill="#000000" fill-rule="nonzero" fill-opacity="1" /><path clip-path="url(#clip640)" d="M95.1586 67.0295 L111.478 67.0295 L111.478 70.9646 L89.5336 70.9646 L89.5336 67.0295 Q92.1956 64.2748 96.7789 59.6452 Q101.385 54.9925 102.566 53.6499 Q104.811 51.1268 105.691 49.3907 Q106.594 47.6314 106.594 45.9416 Q106.594 43.187 104.649 41.4509 Q102.728 39.7148 99.6261 39.7148 Q97.4271 39.7148 94.9734 40.4787 Q92.5428 41.2426 89.7651 42.7935 L89.7651 38.0713 Q92.5891 36.937 95.0428 36.3583 Q97.4965 35.7796 99.5335 35.7796 Q104.904 35.7796 108.098 38.4648 Q111.293 41.15 111.293 45.6407 Q111.293 47.7703 110.483 49.6916 Q109.696 51.5897 107.589 54.1823 Q107.01 54.8536 103.909 58.0712 Q100.807 61.2656 95.1586 67.0295 Z" fill="#000000" fill-rule="nonzero" fill-opacity="1" /><path clip-path="url(#clip642)" d="M209.891 1445.72 L209.891 1445.72 L308.961 1445.72 L408.03 1445.72 L507.099 1445.72 L606.168 1445.72 L705.237 1445.72 L804.306 1445.72 L903.375 1445.72 L1002.44 1445.72 L1101.51 1445.72 L1200.58 1445.72 L1299.65 1445.72 L1398.72 1445.72 L1497.79 1445.72 L1596.86 1445.72 L1695.93 1445.72 L1795 1445.72 L1894.07 1445.72 L1993.14 1445.72 L2092.2 1445.72 L2191.27 1445.72 L2290.34 1445.72 L2290.34 1445.72 L2290.34 1445.72 L2290.34 1445.72 L2290.34 1355.2 L2290.34 1264.68 L2290.34 1174.17 L2290.34 1083.65 L2290.34 993.136 L2290.34 902.62 L2290.34 812.104 L2290.34 721.588 L2290.34 631.072 L2290.34 540.556 L2290.34 450.04 L2290.34 359.524 L2290.34 269.008 L2290.34 178.492 L2290.34 87.9763 L2290.34 87.9763 L2290.34 87.9763 L2290.34 87.9763 L2191.27 87.9763 L2092.2 87.9763 L1993.14 87.9763 L1894.07 87.9763 L1795 87.9763 L1695.93 87.9763 L1596.86 87.9763 L1497.79 87.9763 L1398.72 87.9763 L1299.65 87.9763 L1200.58 87.9763 L1101.51 87.9763 L1002.44 87.9763 L903.375 87.9763 L804.306 87.9763 L705.237 87.9763 L606.168 87.9763 L507.099 87.9763 L408.03 87.9763 L308.961 87.9763 L209.891 87.9763 L209.891 87.9763 L209.891 87.9763 L209.891 87.9763 L209.891 178.492 L209.891 269.008 L209.891 359.524 L209.891 450.04 L209.891 540.556 L209.891 631.072 L209.891 721.588 L209.891 812.104 L209.891 902.62 L209.891 993.136 L209.891 1083.65 L209.891 1174.17 L209.891 1264.68 L209.891 1355.2 L209.891 1445.72 L209.891 1445.72 L209.891 1445.72  Z" fill="#000003" fill-rule="evenodd" fill-opacity="1"/>
<path clip-path="url(#clip642)" d="M308.961 1445.72 L408.03 1445.72 L507.099 1445.72 L606.168 1445.72 L705.237 1445.72 L804.306 1445.72 L903.375 1445.72 L1002.44 1445.72 L1101.51 1445.72 L1200.58 1445.72 L1299.65 1445.72 L1398.72 1445.72 L1497.79 1445.72 L1596.86 1445.72 L1695.93 1445.72 L1795 1445.72 L1894.07 1445.72 L1993.14 1445.72 L2092.2 1445.72 L2191.27 1445.72 L2290.34 1445.72 L2290.34 1445.72 L2290.34 1445.72 L2290.34 1445.72 L2290.34 1355.2 L2290.34 1264.68 L2290.34 1174.17 L2290.34 1083.65 L2290.34 993.136 L2290.34 902.62 L2290.34 812.104 L2290.34 721.588 L2290.34 631.072 L2290.34 540.556 L2290.34 540.556 L2290.34 455.697 L2191.27 455.697 L2098.4 540.556 L2092.2 546.213 L1993.14 546.213 L1900.26 631.072 L1894.07 636.729 L1795 636.729 L1695.93 636.729 L1603.05 721.588 L1596.86 727.245 L1497.79 727.245 L1398.72 727.245 L1392.53 721.588 L1299.65 636.729 L1200.58 636.729 L1194.39 631.072 L1101.51 546.213 L1008.64 631.072 L1002.44 636.729 L903.375 636.729 L810.498 721.588 L804.306 727.245 L711.429 812.104 L711.429 902.62 L705.237 908.277 L612.36 993.136 L606.168 998.793 L513.291 1083.65 L507.099 1089.31 L414.221 1174.17 L408.03 1179.83 L315.152 1264.68 L315.152 1355.2 L308.961 1360.86 L216.083 1445.72 L209.891 1445.72 L308.961 1445.72  Z" fill="#0b0726" fill-rule="evenodd" fill-opacity="1"/>
<path clip-path="url(#clip642)" d="M308.961 1445.72 L408.03 1445.72 L507.099 1445.72 L606.168 1445.72 L705.237 1445.72 L804.306 1445.72 L903.375 1445.72 L1002.44 1445.72 L1101.51 1445.72 L1200.58 1445.72 L1299.65 1445.72 L1398.72 1445.72 L1497.79 1445.72 L1596.86 1445.72 L1695.93 1445.72 L1795 1445.72 L1894.07 1445.72 L1993.14 1445.72 L2092.2 1445.72 L2191.27 1445.72 L2290.34 1445.72 L2290.34 1445.72 L2290.34 1445.72 L2290.34 1445.72 L2290.34 1355.2 L2290.34 1264.68 L2290.34 1174.17 L2290.34 1083.65 L2290.34 993.136 L2290.34 902.62 L2290.34 812.104 L2290.34 721.588 L2290.34 631.072 L2290.34 540.556 L2290.34 540.556 L2290.34 461.355 L2191.27 461.355 L2104.59 540.556 L2092.2 551.871 L1993.14 551.871 L1906.45 631.072 L1894.07 642.387 L1795 642.387 L1695.93 642.387 L1609.24 721.588 L1596.86 732.902 L1497.79 732.902 L1398.72 732.902 L1386.34 721.588 L1299.65 642.387 L1200.58 642.387 L1188.2 631.072 L1101.51 551.871 L1014.83 631.072 L1002.44 642.387 L903.375 642.387 L816.69 721.588 L804.306 732.902 L717.621 812.104 L717.621 902.62 L705.237 913.934 L618.551 993.136 L606.168 1004.45 L519.482 1083.65 L507.099 1094.97 L420.413 1174.17 L408.03 1185.48 L321.344 1264.68 L321.344 1355.2 L308.961 1366.51 L222.275 1445.72 L209.891 1445.72 L308.961 1445.72  Z" fill="#240b4e" fill-rule="evenodd" fill-opacity="1"/>
<path clip-path="url(#clip642)" d="M308.961 1445.72 L408.03 1445.72 L507.099 1445.72 L606.168 1445.72 L705.237 1445.72 L804.306 1445.72 L903.375 1445.72 L1002.44 1445.72 L1101.51 1445.72 L1200.58 1445.72 L1299.65 1445.72 L1398.72 1445.72 L1497.79 1445.72 L1596.86 1445.72 L1695.93 1445.72 L1795 1445.72 L1894.07 1445.72 L1993.14 1445.72 L2092.2 1445.72 L2191.27 1445.72 L2290.34 1445.72 L2290.34 1445.72 L2290.34 1445.72 L2290.34 1445.72 L2290.34 1355.2 L2290.34 1264.68 L2290.34 1174.17 L2290.34 1083.65 L2290.34 993.136 L2290.34 902.62 L2290.34 812.104 L2290.34 721.588 L2290.34 631.072 L2290.34 540.556 L2290.34 540.556 L2290.34 467.012 L2191.27 467.012 L2110.78 540.556 L2092.2 557.528 L1993.14 557.528 L1912.64 631.072 L1894.07 648.044 L1795 648.044 L1695.93 648.044 L1615.43 721.588 L1596.86 738.56 L1497.79 738.56 L1398.72 738.56 L1380.15 721.588 L1299.65 648.044 L1200.58 648.044 L1182.01 631.072 L1101.51 557.528 L1021.02 631.072 L1002.44 648.044 L903.375 648.044 L822.881 721.588 L804.306 738.56 L723.812 812.104 L723.812 902.62 L705.237 919.592 L624.743 993.136 L606.168 1010.11 L525.674 1083.65 L507.099 1100.62 L426.605 1174.17 L408.03 1191.14 L327.536 1264.68 L327.536 1355.2 L308.961 1372.17 L228.467 1445.72 L209.891 1445.72 L308.961 1445.72  Z" fill="#410967" fill-rule="evenodd" fill-opacity="1"/>
<path clip-path="url(#clip642)" d="M308.961 1445.72 L408.03 1445.72 L507.099 1445.72 L606.168 1445.72 L705.237 1445.72 L804.306 1445.72 L903.375 1445.72 L1002.44 1445.72 L1101.51 1445.72 L1200.58 1445.72 L1299.65 1445.72 L1398.72 1445.72 L1497.79 1445.72 L1596.86 1445.72 L1695.93 1445.72 L1795 1445.72 L1894.07 1445.72 L1993.14 1445.72 L2092.2 1445.72 L2191.27 1445.72 L2290.34 1445.72 L2290.34 1445.72 L2290.34 1445.72 L2290.34 1445.72 L2290.34 1355.2 L2290.34 1264.68 L2290.34 1174.17 L2290.34 1083.65 L2290.34 993.136 L2290.34 902.62 L2290.34 812.104 L2290.34 721.588 L2290.34 631.072 L2290.34 540.556 L2290.34 540.556 L2290.34 472.669 L2191.27 472.669 L2116.97 540.556 L2092.2 563.185 L1993.14 563.185 L1918.83 631.072 L1894.07 653.701 L1795 653.701 L1695.93 653.701 L1621.63 721.588 L1596.86 744.217 L1497.79 744.217 L1398.72 744.217 L1373.95 721.588 L1299.65 653.701 L1200.58 653.701 L1175.82 631.072 L1101.51 563.185 L1027.21 631.072 L1002.44 653.701 L903.375 653.701 L829.073 721.588 L804.306 744.217 L730.004 812.104 L730.004 902.62 L705.237 925.249 L630.935 993.136 L606.168 1015.76 L531.866 1083.65 L507.099 1106.28 L432.797 1174.17 L408.03 1196.8 L333.728 1264.68 L333.728 1355.2 L308.961 1377.83 L234.659 1445.72 L209.891 1445.72 L308.961 1445.72  Z" fill="#5d126e" fill-rule="evenodd" fill-opacity="1"/>
<path clip-path="url(#clip642)" d="M308.961 1445.72 L408.03 1445.72 L507.099 1445.72 L606.168 1445.72 L705.237 1445.72 L804.306 1445.72 L903.375 1445.72 L1002.44 1445.72 L1101.51 1445.72 L1200.58 1445.72 L1299.65 1445.72 L1398.72 1445.72 L1497.79 1445.72 L1596.86 1445.72 L1695.93 1445.72 L1795 1445.72 L1894.07 1445.72 L1993.14 1445.72 L2092.2 1445.72 L2191.27 1445.72 L2290.34 1445.72 L2290.34 1445.72 L2290.34 1445.72 L2290.34 1445.72 L2290.34 1355.2 L2290.34 1264.68 L2290.34 1174.17 L2290.34 1083.65 L2290.34 993.136 L2290.34 902.62 L2290.34 812.104 L2290.34 721.588 L2290.34 631.072 L2290.34 540.556 L2290.34 540.556 L2290.34 478.326 L2191.27 478.326 L2123.16 540.556 L2092.2 568.842 L1993.14 568.842 L1925.03 631.072 L1894.07 659.358 L1795 659.358 L1695.93 659.358 L1627.82 721.588 L1596.86 749.874 L1497.79 749.874 L1398.72 749.874 L1367.76 721.588 L1299.65 659.358 L1200.58 659.358 L1169.62 631.072 L1101.51 568.842 L1033.4 631.072 L1002.44 659.358 L903.375 659.358 L835.265 721.588 L804.306 749.874 L736.196 812.104 L736.196 902.62 L705.237 930.906 L637.127 993.136 L606.168 1021.42 L538.058 1083.65 L507.099 1111.94 L438.989 1174.17 L408.03 1202.45 L339.92 1264.68 L339.92 1355.2 L308.961 1383.49 L240.851 1445.72 L209.891 1445.72 L308.961 1445.72  Z" fill="#781c6d" fill-rule="evenodd" fill-opacity="1"/>
<path clip-path="url(#clip642)" d="M308.961 1445.72 L408.03 1445.72 L507.099 1445.72 L606.168 1445.72 L705.237 1445.72 L804.306 1445.72 L903.375 1445.72 L1002.44 1445.72 L1101.51 1445.72 L1200.58 1445.72 L1299.65 1445.72 L1398.72 1445.72 L1497.79 1445.72 L1596.86 1445.72 L1695.93 1445.72 L1795 1445.72 L1894.07 1445.72 L1993.14 1445.72 L2092.2 1445.72 L2191.27 1445.72 L2290.34 1445.72 L2290.34 1445.72 L2290.34 1445.72 L2290.34 1445.72 L2290.34 1355.2 L2290.34 1264.68 L2290.34 1174.17 L2290.34 1083.65 L2290.34 993.136 L2290.34 902.62 L2290.34 812.104 L2290.34 721.588 L2290.34 631.072 L2290.34 540.556 L2290.34 540.556 L2290.34 483.984 L2191.27 483.984 L2129.36 540.556 L2092.2 574.5 L1993.14 574.5 L1931.22 631.072 L1894.07 665.016 L1795 665.016 L1695.93 665.016 L1634.01 721.588 L1596.86 755.531 L1497.79 755.531 L1398.72 755.531 L1361.57 721.588 L1299.65 665.016 L1200.58 665.016 L1163.43 631.072 L1101.51 574.5 L1039.6 631.072 L1002.44 665.016 L903.375 665.016 L841.457 721.588 L804.306 755.531 L742.388 812.104 L742.388 902.62 L705.237 936.563 L643.319 993.136 L606.168 1027.08 L544.25 1083.65 L507.099 1117.6 L445.181 1174.17 L408.03 1208.11 L346.111 1264.68 L346.111 1355.2 L308.961 1389.14 L247.042 1445.72 L209.891 1445.72 L308.961 1445.72  Z" fill="#932567" fill-rule="evenodd" fill-opacity="1"/>
<path clip-path="url(#clip642)" d="M308.961 1445.72 L408.03 1445.72 L507.099 1445.72 L606.168 1445.72 L705.237 1445.72 L804.306 1445.72 L903.375 1445.72 L1002.44 1445.72 L1101.51 1445.72 L1200.58 1445.72 L1299.65 1445.72 L1398.72 1445.72 L1497.79 1445.72 L1596.86 1445.72 L1695.93 1445.72 L1795 1445.72 L1894.07 1445.72 L1993.14 1445.72 L2092.2 1445.72 L2191.27 1445.72 L2290.34 1445.72 L2290.34 1445.72 L2290.34 1445.72 L2290.34 1445.72 L2290.34 1355.2 L2290.34 1264.68 L2290.34 1174.17 L2290.34 1083.65 L2290.34 993.136 L2290.34 902.62 L2290.34 812.104 L2290.34 721.588 L2290.34 631.072 L2290.34 540.556 L2290.34 540.556 L2290.34 489.641 L2191.27 489.641 L2135.55 540.556 L2092.2 580.157 L1993.14 580.157 L1937.41 631.072 L1894.07 670.673 L1795 670.673 L1695.93 670.673 L1640.2 721.588 L1596.86 761.189 L1497.79 761.189 L1398.72 761.189 L1355.38 721.588 L1299.65 670.673 L1200.58 670.673 L1157.24 631.072 L1101.51 580.157 L1045.79 631.072 L1002.44 670.673 L903.375 670.673 L847.649 721.588 L804.306 761.189 L748.58 812.104 L748.58 902.62 L705.237 942.221 L649.511 993.136 L606.168 1032.74 L550.441 1083.65 L507.099 1123.25 L451.372 1174.17 L408.03 1213.77 L352.303 1264.68 L352.303 1355.2 L308.961 1394.8 L253.234 1445.72 L209.891 1445.72 L308.961 1445.72  Z" fill="#ae305b" fill-rule="evenodd" fill-opacity="1"/>
<path clip-path="url(#clip642)" d="M308.961 1445.72 L408.03 1445.72 L507.099 1445.72 L606.168 1445.72 L705.237 1445.72 L804.306 1445.72 L903.375 1445.72 L1002.44 1445.72 L1101.51 1445.72 L1200.58 1445.72 L1299.65 1445.72 L1398.72 1445.72 L1497.79 1445.72 L1596.86 1445.72 L1695.93 1445.72 L1795 1445.72 L1894.07 1445.72 L1993.14 1445.72 L2092.2 1445.72 L2191.27 1445.72 L2290.34 1445.72 L2290.34 1445.72 L2290.34 1445.72 L2290.34 1445.72 L2290.34 1355.2 L2290.34 1264.68 L2290.34 1174.17 L2290.34 1083.65 L2290.34 993.136 L2290.34 902.62 L2290.34 812.104 L2290.34 721.588 L2290.34 631.072 L2290.34 540.556 L2290.34 540.556 L2290.34 495.298 L2191.27 495.298 L2141.74 540.556 L2092.2 585.814 L1993.14 585.814 L1943.6 631.072 L1894.07 676.33 L1795 676.33 L1695.93 676.33 L1646.39 721.588 L1596.86 766.846 L1497.79 766.846 L1398.72 766.846 L1349.19 721.588 L1299.65 676.33 L1200.58 676.33 L1151.05 631.072 L1101.51 585.814 L1051.98 631.072 L1002.44 676.33 L903.375 676.33 L853.841 721.588 L804.306 766.846 L754.771 812.104 L754.771 902.62 L705.237 947.878 L655.702 993.136 L606.168 1038.39 L556.633 1083.65 L507.099 1128.91 L457.564 1174.17 L408.03 1219.43 L358.495 1264.68 L358.495 1355.2 L308.961 1400.46 L259.426 1445.72 L209.891 1445.72 L308.961 1445.72  Z" fill="#c73e4c" fill-rule="evenodd" fill-opacity="1"/>
<path clip-path="url(#clip642)" d="M308.961 1445.72 L408.03 1445.72 L507.099 1445.72 L606.168 1445.72 L705.237 1445.72 L804.306 1445.72 L903.375 1445.72 L1002.44 1445.72 L1101.51 1445.72 L1200.58 1445.72 L1299.65 1445.72 L1398.72 1445.72 L1497.79 1445.72 L1596.86 1445.72 L1695.93 1445.72 L1795 1445.72 L1894.07 1445.72 L1993.14 1445.72 L2092.2 1445.72 L2191.27 1445.72 L2290.34 1445.72 L2290.34 1445.72 L2290.34 1445.72 L2290.34 1445.72 L2290.34 1355.2 L2290.34 1264.68 L2290.34 1174.17 L2290.34 1083.65 L2290.34 993.136 L2290.34 902.62 L2290.34 812.104 L2290.34 721.588 L2290.34 631.072 L2290.34 540.556 L2290.34 540.556 L2290.34 500.955 L2191.27 500.955 L2147.93 540.556 L2092.2 591.471 L1993.14 591.471 L1949.79 631.072 L1894.07 681.987 L1795 681.987 L1695.93 681.987 L1652.59 721.588 L1596.86 772.503 L1497.79 772.503 L1398.72 772.503 L1342.99 721.588 L1299.65 681.987 L1200.58 681.987 L1144.86 631.072 L1101.51 591.471 L1058.17 631.072 L1002.44 681.987 L903.375 681.987 L860.032 721.588 L804.306 772.503 L760.963 812.104 L760.963 902.62 L705.237 953.535 L661.894 993.136 L606.168 1044.05 L562.825 1083.65 L507.099 1134.57 L463.756 1174.17 L408.03 1225.08 L364.687 1264.68 L364.687 1355.2 L308.961 1406.11 L265.618 1445.72 L209.891 1445.72 L308.961 1445.72  Z" fill="#dc5039" fill-rule="evenodd" fill-opacity="1"/>
<path clip-path="url(#clip642)" d="M308.961 1445.72 L408.03 1445.72 L507.099 1445.72 L606.168 1445.72 L705.237 1445.72 L804.306 1445.72 L903.375 1445.72 L1002.44 1445.72 L1101.51 1445.72 L1200.58 1445.72 L1299.65 1445.72 L1398.72 1445.72 L1497.79 1445.72 L1596.86 1445.72 L1695.93 1445.72 L1795 1445.72 L1894.07 1445.72 L1993.14 1445.72 L2092.2 1445.72 L2191.27 1445.72 L2290.34 1445.72 L2290.34 1445.72 L2290.34 1445.72 L2290.34 1445.72 L2290.34 1355.2 L2290.34 1264.68 L2290.34 1174.17 L2290.34 1083.65 L2290.34 993.136 L2290.34 902.62 L2290.34 812.104 L2290.34 721.588 L2290.34 631.072 L2290.34 540.556 L2290.34 540.556 L2290.34 506.613 L2191.27 506.613 L2154.12 540.556 L2092.2 597.129 L1993.14 597.129 L1955.98 631.072 L1894.07 687.645 L1795 687.645 L1695.93 687.645 L1658.78 721.588 L1596.86 778.16 L1497.79 778.16 L1398.72 778.16 L1336.8 721.588 L1299.65 687.645 L1200.58 687.645 L1138.66 631.072 L1101.51 597.129 L1064.36 631.072 L1002.44 687.645 L903.375 687.645 L866.224 721.588 L804.306 778.16 L767.155 812.104 L767.155 902.62 L705.237 959.192 L668.086 993.136 L606.168 1049.71 L569.017 1083.65 L507.099 1140.22 L469.948 1174.17 L408.03 1230.74 L370.879 1264.68 L370.879 1355.2 L308.961 1411.77 L271.81 1445.72 L209.891 1445.72 L308.961 1445.72  Z" fill="#ed6825" fill-rule="evenodd" fill-opacity="1"/>
<path clip-path="url(#clip642)" d="M308.961 1445.72 L408.03 1445.72 L507.099 1445.72 L606.168 1445.72 L705.237 1445.72 L804.306 1445.72 L903.375 1445.72 L1002.44 1445.72 L1101.51 1445.72 L1200.58 1445.72 L1299.65 1445.72 L1398.72 1445.72 L1497.79 1445.72 L1596.86 1445.72 L1695.93 1445.72 L1795 1445.72 L1894.07 1445.72 L1993.14 1445.72 L2092.2 1445.72 L2191.27 1445.72 L2290.34 1445.72 L2290.34 1445.72 L2290.34 1445.72 L2290.34 1445.72 L2290.34 1355.2 L2290.34 1264.68 L2290.34 1174.17 L2290.34 1083.65 L2290.34 993.136 L2290.34 902.62 L2290.34 812.104 L2290.34 721.588 L2290.34 631.072 L2290.34 540.556 L2290.34 540.556 L2290.34 512.27 L2191.27 512.27 L2160.31 540.556 L2092.2 602.786 L1993.14 602.786 L1962.18 631.072 L1894.07 693.302 L1795 693.302 L1695.93 693.302 L1664.97 721.588 L1596.86 783.818 L1497.79 783.818 L1398.72 783.818 L1330.61 721.588 L1299.65 693.302 L1200.58 693.302 L1132.47 631.072 L1101.51 602.786 L1070.55 631.072 L1002.44 693.302 L903.375 693.302 L872.416 721.588 L804.306 783.818 L773.347 812.104 L773.347 902.62 L705.237 964.85 L674.278 993.136 L606.168 1055.37 L575.209 1083.65 L507.099 1145.88 L476.14 1174.17 L408.03 1236.4 L377.071 1264.68 L377.071 1355.2 L308.961 1417.43 L278.001 1445.72 L209.891 1445.72 L308.961 1445.72  Z" fill="#f7850e" fill-rule="evenodd" fill-opacity="1"/>
<path clip-path="url(#clip642)" d="M308.961 1445.72 L408.03 1445.72 L507.099 1445.72 L606.168 1445.72 L705.237 1445.72 L804.306 1445.72 L903.375 1445.72 L1002.44 1445.72 L1101.51 1445.72 L1200.58 1445.72 L1299.65 1445.72 L1398.72 1445.72 L1497.79 1445.72 L1596.86 1445.72 L1695.93 1445.72 L1795 1445.72 L1894.07 1445.72 L1993.14 1445.72 L2092.2 1445.72 L2191.27 1445.72 L2290.34 1445.72 L2290.34 1445.72 L2290.34 1445.72 L2290.34 1445.72 L2290.34 1355.2 L2290.34 1264.68 L2290.34 1174.17 L2290.34 1083.65 L2290.34 993.136 L2290.34 902.62 L2290.34 812.104 L2290.34 721.588 L2290.34 631.072 L2290.34 540.556 L2290.34 540.556 L2290.34 517.927 L2191.27 517.927 L2166.51 540.556 L2092.2 608.443 L1993.14 608.443 L1968.37 631.072 L1894.07 698.959 L1795 698.959 L1695.93 698.959 L1671.16 721.588 L1596.86 789.475 L1497.79 789.475 L1398.72 789.475 L1324.42 721.588 L1299.65 698.959 L1200.58 698.959 L1126.28 631.072 L1101.51 608.443 L1076.75 631.072 L1002.44 698.959 L903.375 698.959 L878.608 721.588 L804.306 789.475 L779.539 812.104 L779.539 902.62 L705.237 970.507 L680.47 993.136 L606.168 1061.02 L581.401 1083.65 L507.099 1151.54 L482.331 1174.17 L408.03 1242.05 L383.262 1264.68 L383.262 1355.2 L308.961 1423.09 L284.193 1445.72 L209.891 1445.72 L308.961 1445.72  Z" fill="#fba40a" fill-rule="evenodd" fill-opacity="1"/>
<path clip-path="url(#clip642)" d="M308.961 1445.72 L408.03 1445.72 L507.099 1445.72 L606.168 1445.72 L705.237 1445.72 L804.306 1445.72 L903.375 1445.72 L1002.44 1445.72 L1101.51 1445.72 L1200.58 1445.72 L1299.65 1445.72 L1398.72 1445.72 L1497.79 1445.72 L1596.86 1445.72 L1695.93 1445.72 L1795 1445.72 L1894.07 1445.72 L1993.14 1445.72 L2092.2 1445.72 L2191.27 1445.72 L2290.34 1445.72 L2290.34 1445.72 L2290.34 1445.72 L2290.34 1445.72 L2290.34 1355.2 L2290.34 1264.68 L2290.34 1174.17 L2290.34 1083.65 L2290.34 993.136 L2290.34 902.62 L2290.34 812.104 L2290.34 721.588 L2290.34 631.072 L2290.34 540.556 L2290.34 540.556 L2290.34 523.584 L2191.27 523.584 L2172.7 540.556 L2092.2 614.1 L1993.14 614.1 L1974.56 631.072 L1894.07 704.616 L1795 704.616 L1695.93 704.616 L1677.35 721.588 L1596.86 795.132 L1497.79 795.132 L1398.72 795.132 L1318.23 721.588 L1299.65 704.616 L1200.58 704.616 L1120.09 631.072 L1101.51 614.1 L1082.94 631.072 L1002.44 704.616 L903.375 704.616 L884.8 721.588 L804.306 795.132 L785.731 812.104 L785.731 902.62 L705.237 976.164 L686.661 993.136 L606.168 1066.68 L587.592 1083.65 L507.099 1157.2 L488.523 1174.17 L408.03 1247.71 L389.454 1264.68 L389.454 1355.2 L308.961 1428.74 L290.385 1445.72 L209.891 1445.72 L308.961 1445.72  Z" fill="#f9c52c" fill-rule="evenodd" fill-opacity="1"/>
<path clip-path="url(#clip642)" d="M308.961 1445.72 L408.03 1445.72 L507.099 1445.72 L606.168 1445.72 L705.237 1445.72 L804.306 1445.72 L903.375 1445.72 L1002.44 1445.72 L1101.51 1445.72 L1200.58 1445.72 L1299.65 1445.72 L1398.72 1445.72 L1497.79 1445.72 L1596.86 1445.72 L1695.93 1445.72 L1795 1445.72 L1894.07 1445.72 L1993.14 1445.72 L2092.2 1445.72 L2191.27 1445.72 L2290.34 1445.72 L2290.34 1445.72 L2290.34 1445.72 L2290.34 1445.72 L2290.34 1355.2 L2290.34 1264.68 L2290.34 1174.17 L2290.34 1083.65 L2290.34 993.136 L2290.34 902.62 L2290.34 812.104 L2290.34 721.588 L2290.34 631.072 L2290.34 540.556 L2290.34 540.556 L2290.34 529.242 L2191.27 529.242 L2178.89 540.556 L2092.2 619.758 L1993.14 619.758 L1980.75 631.072 L1894.07 710.274 L1795 710.274 L1695.93 710.274 L1683.54 721.588 L1596.86 800.789 L1497.79 800.789 L1398.72 800.789 L1312.04 721.588 L1299.65 710.274 L1200.58 710.274 L1113.9 631.072 L1101.51 619.758 L1089.13 631.072 L1002.44 710.274 L903.375 710.274 L890.991 721.588 L804.306 800.789 L791.922 812.104 L791.922 902.62 L705.237 981.821 L692.853 993.136 L606.168 1072.34 L593.784 1083.65 L507.099 1162.85 L494.715 1174.17 L408.03 1253.37 L395.646 1264.68 L395.646 1355.2 L308.961 1434.4 L296.577 1445.72 L209.891 1445.72 L308.961 1445.72  Z" fill="#f2e660" fill-rule="evenodd" fill-opacity="1"/>
<path clip-path="url(#clip642)" d="M308.961 1445.72 L408.03 1445.72 L507.099 1445.72 L606.168 1445.72 L705.237 1445.72 L804.306 1445.72 L903.375 1445.72 L1002.44 1445.72 L1101.51 1445.72 L1200.58 1445.72 L1299.65 1445.72 L1398.72 1445.72 L1497.79 1445.72 L1596.86 1445.72 L1695.93 1445.72 L1795 1445.72 L1894.07 1445.72 L1993.14 1445.72 L2092.2 1445.72 L2191.27 1445.72 L2290.34 1445.72 L2290.34 1445.72 L2290.34 1445.72 L2290.34 1445.72 L2290.34 1355.2 L2290.34 1264.68 L2290.34 1174.17 L2290.34 1083.65 L2290.34 993.136 L2290.34 902.62 L2290.34 812.104 L2290.34 721.588 L2290.34 631.072 L2290.34 540.556 L2290.34 540.556 L2290.34 534.899 L2191.27 534.899 L2185.08 540.556 L2092.2 625.415 L1993.14 625.415 L1986.94 631.072 L1894.07 715.931 L1795 715.931 L1695.93 715.931 L1689.74 721.588 L1596.86 806.447 L1497.79 806.447 L1398.72 806.447 L1305.84 721.588 L1299.65 715.931 L1200.58 715.931 L1107.71 631.072 L1101.51 625.415 L1095.32 631.072 L1002.44 715.931 L903.375 715.931 L897.183 721.588 L804.306 806.447 L798.114 812.104 L798.114 902.62 L705.237 987.479 L699.045 993.136 L606.168 1077.99 L599.976 1083.65 L507.099 1168.51 L500.907 1174.17 L408.03 1259.03 L401.838 1264.68 L401.838 1355.2 L308.961 1440.06 L302.769 1445.72 L209.891 1445.72 L308.961 1445.72  Z" fill="#fcfea4" fill-rule="evenodd" fill-opacity="1"/>
<polyline clip-path="url(#clip642)" style="stroke:#000003; stroke-linecap:round; stroke-linejoin:round; stroke-width:4; stroke-opacity:1; fill:none" points="209.891,1445.72 209.891,1445.72 308.961,1445.72 408.03,1445.72 507.099,1445.72 606.168,1445.72 705.237,1445.72 804.306,1445.72 903.375,1445.72 1002.44,1445.72 1101.51,1445.72 1200.58,1445.72 1299.65,1445.72 1398.72,1445.72 1497.79,1445.72 1596.86,1445.72 1695.93,1445.72 1795,1445.72 1894.07,1445.72 1993.14,1445.72 2092.2,1445.72 2191.27,1445.72 2290.34,1445.72 2290.34,1355.2 2290.34,1264.68 2290.34,1174.17 2290.34,1083.65 2290.34,993.136 2290.34,902.62 2290.34,812.104 2290.34,721.588 2290.34,631.072 2290.34,540.556 2290.34,450.04 2290.34,359.524 2290.34,269.008 2290.34,178.492 2290.34,87.9763 2191.27,87.9763 2092.2,87.9763 1993.14,87.9763 1894.07,87.9763 1795,87.9763 1695.93,87.9763 1596.86,87.9763 1497.79,87.9763 1398.72,87.9763 1299.65,87.9763 1200.58,87.9763 1101.51,87.9763 1002.44,87.9763 903.375,87.9763 804.306,87.9763 705.237,87.9763 606.168,87.9763 507.099,87.9763 408.03,87.9763 308.961,87.9763 209.891,87.9763 209.891,178.492 209.891,269.008 209.891,359.524 209.891,450.04 209.891,540.556 209.891,631.072 209.891,721.588 209.891,812.104 209.891,902.62 209.891,993.136 209.891,1083.65 209.891,1174.17 209.891,1264.68 209.891,1355.2 209.891,1445.72 "/>
<polyline clip-path="url(#clip642)" style="stroke:#000003; stroke-linecap:round; stroke-linejoin:round; stroke-width:4; stroke-opacity:1; fill:none" points="308.961,1445.72 408.03,1445.72 507.099,1445.72 606.168,1445.72 705.237,1445.72 804.306,1445.72 903.375,1445.72 1002.44,1445.72 1101.51,1445.72 1200.58,1445.72 1299.65,1445.72 1398.72,1445.72 1497.79,1445.72 1596.86,1445.72 1695.93,1445.72 1795,1445.72 1894.07,1445.72 1993.14,1445.72 2092.2,1445.72 2191.27,1445.72 2290.34,1445.72 2290.34,1355.2 2290.34,1264.68 2290.34,1174.17 2290.34,1083.65 2290.34,993.136 2290.34,902.62 2290.34,812.104 2290.34,721.588 2290.34,631.072 2290.34,540.556 2290.34,455.697 2191.27,455.697 2098.4,540.556 2092.2,546.213 1993.14,546.213 1900.26,631.072 1894.07,636.729 1795,636.729 1695.93,636.729 1603.05,721.588 1596.86,727.245 1497.79,727.245 1398.72,727.245 1392.53,721.588 1299.65,636.729 1200.58,636.729 1194.39,631.072 1101.51,546.213 1008.64,631.072 1002.44,636.729 903.375,636.729 810.498,721.588 804.306,727.245 711.429,812.104 711.429,902.62 705.237,908.277 612.36,993.136 606.168,998.793 513.291,1083.65 507.099,1089.31 414.221,1174.17 408.03,1179.83 315.152,1264.68 315.152,1355.2 308.961,1360.86 216.083,1445.72 209.891,1445.72 308.961,1445.72 "/>
<polyline clip-path="url(#clip642)" style="stroke:#000003; stroke-linecap:round; stroke-linejoin:round; stroke-width:4; stroke-opacity:1; fill:none" points="308.961,1445.72 408.03,1445.72 507.099,1445.72 606.168,1445.72 705.237,1445.72 804.306,1445.72 903.375,1445.72 1002.44,1445.72 1101.51,1445.72 1200.58,1445.72 1299.65,1445.72 1398.72,1445.72 1497.79,1445.72 1596.86,1445.72 1695.93,1445.72 1795,1445.72 1894.07,1445.72 1993.14,1445.72 2092.2,1445.72 2191.27,1445.72 2290.34,1445.72 2290.34,1355.2 2290.34,1264.68 2290.34,1174.17 2290.34,1083.65 2290.34,993.136 2290.34,902.62 2290.34,812.104 2290.34,721.588 2290.34,631.072 2290.34,540.556 2290.34,461.355 2191.27,461.355 2104.59,540.556 2092.2,551.871 1993.14,551.871 1906.45,631.072 1894.07,642.387 1795,642.387 1695.93,642.387 1609.24,721.588 1596.86,732.902 1497.79,732.902 1398.72,732.902 1386.34,721.588 1299.65,642.387 1200.58,642.387 1188.2,631.072 1101.51,551.871 1014.83,631.072 1002.44,642.387 903.375,642.387 816.69,721.588 804.306,732.902 717.621,812.104 717.621,902.62 705.237,913.934 618.551,993.136 606.168,1004.45 519.482,1083.65 507.099,1094.97 420.413,1174.17 408.03,1185.48 321.344,1264.68 321.344,1355.2 308.961,1366.51 222.275,1445.72 209.891,1445.72 308.961,1445.72 "/>
<polyline clip-path="url(#clip642)" style="stroke:#000003; stroke-linecap:round; stroke-linejoin:round; stroke-width:4; stroke-opacity:1; fill:none" points="308.961,1445.72 408.03,1445.72 507.099,1445.72 606.168,1445.72 705.237,1445.72 804.306,1445.72 903.375,1445.72 1002.44,1445.72 1101.51,1445.72 1200.58,1445.72 1299.65,1445.72 1398.72,1445.72 1497.79,1445.72 1596.86,1445.72 1695.93,1445.72 1795,1445.72 1894.07,1445.72 1993.14,1445.72 2092.2,1445.72 2191.27,1445.72 2290.34,1445.72 2290.34,1355.2 2290.34,1264.68 2290.34,1174.17 2290.34,1083.65 2290.34,993.136 2290.34,902.62 2290.34,812.104 2290.34,721.588 2290.34,631.072 2290.34,540.556 2290.34,467.012 2191.27,467.012 2110.78,540.556 2092.2,557.528 1993.14,557.528 1912.64,631.072 1894.07,648.044 1795,648.044 1695.93,648.044 1615.43,721.588 1596.86,738.56 1497.79,738.56 1398.72,738.56 1380.15,721.588 1299.65,648.044 1200.58,648.044 1182.01,631.072 1101.51,557.528 1021.02,631.072 1002.44,648.044 903.375,648.044 822.881,721.588 804.306,738.56 723.812,812.104 723.812,902.62 705.237,919.592 624.743,993.136 606.168,1010.11 525.674,1083.65 507.099,1100.62 426.605,1174.17 408.03,1191.14 327.536,1264.68 327.536,1355.2 308.961,1372.17 228.467,1445.72 209.891,1445.72 308.961,1445.72 "/>
<polyline clip-path="url(#clip642)" style="stroke:#000003; stroke-linecap:round; stroke-linejoin:round; stroke-width:4; stroke-opacity:1; fill:none" points="308.961,1445.72 408.03,1445.72 507.099,1445.72 606.168,1445.72 705.237,1445.72 804.306,1445.72 903.375,1445.72 1002.44,1445.72 1101.51,1445.72 1200.58,1445.72 1299.65,1445.72 1398.72,1445.72 1497.79,1445.72 1596.86,1445.72 1695.93,1445.72 1795,1445.72 1894.07,1445.72 1993.14,1445.72 2092.2,1445.72 2191.27,1445.72 2290.34,1445.72 2290.34,1355.2 2290.34,1264.68 2290.34,1174.17 2290.34,1083.65 2290.34,993.136 2290.34,902.62 2290.34,812.104 2290.34,721.588 2290.34,631.072 2290.34,540.556 2290.34,472.669 2191.27,472.669 2116.97,540.556 2092.2,563.185 1993.14,563.185 1918.83,631.072 1894.07,653.701 1795,653.701 1695.93,653.701 1621.63,721.588 1596.86,744.217 1497.79,744.217 1398.72,744.217 1373.95,721.588 1299.65,653.701 1200.58,653.701 1175.82,631.072 1101.51,563.185 1027.21,631.072 1002.44,653.701 903.375,653.701 829.073,721.588 804.306,744.217 730.004,812.104 730.004,902.62 705.237,925.249 630.935,993.136 606.168,1015.76 531.866,1083.65 507.099,1106.28 432.797,1174.17 408.03,1196.8 333.728,1264.68 333.728,1355.2 308.961,1377.83 234.659,1445.72 209.891,1445.72 308.961,1445.72 "/>
<polyline clip-path="url(#clip642)" style="stroke:#000003; stroke-linecap:round; stroke-linejoin:round; stroke-width:4; stroke-opacity:1; fill:none" points="308.961,1445.72 408.03,1445.72 507.099,1445.72 606.168,1445.72 705.237,1445.72 804.306,1445.72 903.375,1445.72 1002.44,1445.72 1101.51,1445.72 1200.58,1445.72 1299.65,1445.72 1398.72,1445.72 1497.79,1445.72 1596.86,1445.72 1695.93,1445.72 1795,1445.72 1894.07,1445.72 1993.14,1445.72 2092.2,1445.72 2191.27,1445.72 2290.34,1445.72 2290.34,1355.2 2290.34,1264.68 2290.34,1174.17 2290.34,1083.65 2290.34,993.136 2290.34,902.62 2290.34,812.104 2290.34,721.588 2290.34,631.072 2290.34,540.556 2290.34,478.326 2191.27,478.326 2123.16,540.556 2092.2,568.842 1993.14,568.842 1925.03,631.072 1894.07,659.358 1795,659.358 1695.93,659.358 1627.82,721.588 1596.86,749.874 1497.79,749.874 1398.72,749.874 1367.76,721.588 1299.65,659.358 1200.58,659.358 1169.62,631.072 1101.51,568.842 1033.4,631.072 1002.44,659.358 903.375,659.358 835.265,721.588 804.306,749.874 736.196,812.104 736.196,902.62 705.237,930.906 637.127,993.136 606.168,1021.42 538.058,1083.65 507.099,1111.94 438.989,1174.17 408.03,1202.45 339.92,1264.68 339.92,1355.2 308.961,1383.49 240.851,1445.72 209.891,1445.72 308.961,1445.72 "/>
<polyline clip-path="url(#clip642)" style="stroke:#000003; stroke-linecap:round; stroke-linejoin:round; stroke-width:4; stroke-opacity:1; fill:none" points="308.961,1445.72 408.03,1445.72 507.099,1445.72 606.168,1445.72 705.237,1445.72 804.306,1445.72 903.375,1445.72 1002.44,1445.72 1101.51,1445.72 1200.58,1445.72 1299.65,1445.72 1398.72,1445.72 1497.79,1445.72 1596.86,1445.72 1695.93,1445.72 1795,1445.72 1894.07,1445.72 1993.14,1445.72 2092.2,1445.72 2191.27,1445.72 2290.34,1445.72 2290.34,1355.2 2290.34,1264.68 2290.34,1174.17 2290.34,1083.65 2290.34,993.136 2290.34,902.62 2290.34,812.104 2290.34,721.588 2290.34,631.072 2290.34,540.556 2290.34,483.984 2191.27,483.984 2129.36,540.556 2092.2,574.5 1993.14,574.5 1931.22,631.072 1894.07,665.016 1795,665.016 1695.93,665.016 1634.01,721.588 1596.86,755.531 1497.79,755.531 1398.72,755.531 1361.57,721.588 1299.65,665.016 1200.58,665.016 1163.43,631.072 1101.51,574.5 1039.6,631.072 1002.44,665.016 903.375,665.016 841.457,721.588 804.306,755.531 742.388,812.104 742.388,902.62 705.237,936.563 643.319,993.136 606.168,1027.08 544.25,1083.65 507.099,1117.6 445.181,1174.17 408.03,1208.11 346.111,1264.68 346.111,1355.2 308.961,1389.14 247.042,1445.72 209.891,1445.72 308.961,1445.72 "/>
<polyline clip-path="url(#clip642)" style="stroke:#000003; stroke-linecap:round; stroke-linejoin:round; stroke-width:4; stroke-opacity:1; fill:none" points="308.961,1445.72 408.03,1445.72 507.099,1445.72 606.168,1445.72 705.237,1445.72 804.306,1445.72 903.375,1445.72 1002.44,1445.72 1101.51,1445.72 1200.58,1445.72 1299.65,1445.72 1398.72,1445.72 1497.79,1445.72 1596.86,1445.72 1695.93,1445.72 1795,1445.72 1894.07,1445.72 1993.14,1445.72 2092.2,1445.72 2191.27,1445.72 2290.34,1445.72 2290.34,1355.2 2290.34,1264.68 2290.34,1174.17 2290.34,1083.65 2290.34,993.136 2290.34,902.62 2290.34,812.104 2290.34,721.588 2290.34,631.072 2290.34,540.556 2290.34,489.641 2191.27,489.641 2135.55,540.556 2092.2,580.157 1993.14,580.157 1937.41,631.072 1894.07,670.673 1795,670.673 1695.93,670.673 1640.2,721.588 1596.86,761.189 1497.79,761.189 1398.72,761.189 1355.38,721.588 1299.65,670.673 1200.58,670.673 1157.24,631.072 1101.51,580.157 1045.79,631.072 1002.44,670.673 903.375,670.673 847.649,721.588 804.306,761.189 748.58,812.104 748.58,902.62 705.237,942.221 649.511,993.136 606.168,1032.74 550.441,1083.65 507.099,1123.25 451.372,1174.17 408.03,1213.77 352.303,1264.68 352.303,1355.2 308.961,1394.8 253.234,1445.72 209.891,1445.72 308.961,1445.72 "/>
<polyline clip-path="url(#clip642)" style="stroke:#000003; stroke-linecap:round; stroke-linejoin:round; stroke-width:4; stroke-opacity:1; fill:none" points="308.961,1445.72 408.03,1445.72 507.099,1445.72 606.168,1445.72 705.237,1445.72 804.306,1445.72 903.375,1445.72 1002.44,1445.72 1101.51,1445.72 1200.58,1445.72 1299.65,1445.72 1398.72,1445.72 1497.79,1445.72 1596.86,1445.72 1695.93,1445.72 1795,1445.72 1894.07,1445.72 1993.14,1445.72 2092.2,1445.72 2191.27,1445.72 2290.34,1445.72 2290.34,1355.2 2290.34,1264.68 2290.34,1174.17 2290.34,1083.65 2290.34,993.136 2290.34,902.62 2290.34,812.104 2290.34,721.588 2290.34,631.072 2290.34,540.556 2290.34,495.298 2191.27,495.298 2141.74,540.556 2092.2,585.814 1993.14,585.814 1943.6,631.072 1894.07,676.33 1795,676.33 1695.93,676.33 1646.39,721.588 1596.86,766.846 1497.79,766.846 1398.72,766.846 1349.19,721.588 1299.65,676.33 1200.58,676.33 1151.05,631.072 1101.51,585.814 1051.98,631.072 1002.44,676.33 903.375,676.33 853.841,721.588 804.306,766.846 754.771,812.104 754.771,902.62 705.237,947.878 655.702,993.136 606.168,1038.39 556.633,1083.65 507.099,1128.91 457.564,1174.17 408.03,1219.43 358.495,1264.68 358.495,1355.2 308.961,1400.46 259.426,1445.72 209.891,1445.72 308.961,1445.72 "/>
<polyline clip-path="url(#clip642)" style="stroke:#000003; stroke-linecap:round; stroke-linejoin:round; stroke-width:4; stroke-opacity:1; fill:none" points="308.961,1445.72 408.03,1445.72 507.099,1445.72 606.168,1445.72 705.237,1445.72 804.306,1445.72 903.375,1445.72 1002.44,1445.72 1101.51,1445.72 1200.58,1445.72 1299.65,1445.72 1398.72,1445.72 1497.79,1445.72 1596.86,1445.72 1695.93,1445.72 1795,1445.72 1894.07,1445.72 1993.14,1445.72 2092.2,1445.72 2191.27,1445.72 2290.34,1445.72 2290.34,1355.2 2290.34,1264.68 2290.34,1174.17 2290.34,1083.65 2290.34,993.136 2290.34,902.62 2290.34,812.104 2290.34,721.588 2290.34,631.072 2290.34,540.556 2290.34,500.955 2191.27,500.955 2147.93,540.556 2092.2,591.471 1993.14,591.471 1949.79,631.072 1894.07,681.987 1795,681.987 1695.93,681.987 1652.59,721.588 1596.86,772.503 1497.79,772.503 1398.72,772.503 1342.99,721.588 1299.65,681.987 1200.58,681.987 1144.86,631.072 1101.51,591.471 1058.17,631.072 1002.44,681.987 903.375,681.987 860.032,721.588 804.306,772.503 760.963,812.104 760.963,902.62 705.237,953.535 661.894,993.136 606.168,1044.05 562.825,1083.65 507.099,1134.57 463.756,1174.17 408.03,1225.08 364.687,1264.68 364.687,1355.2 308.961,1406.11 265.618,1445.72 209.891,1445.72 308.961,1445.72 "/>
<polyline clip-path="url(#clip642)" style="stroke:#000003; stroke-linecap:round; stroke-linejoin:round; stroke-width:4; stroke-opacity:1; fill:none" points="308.961,1445.72 408.03,1445.72 507.099,1445.72 606.168,1445.72 705.237,1445.72 804.306,1445.72 903.375,1445.72 1002.44,1445.72 1101.51,1445.72 1200.58,1445.72 1299.65,1445.72 1398.72,1445.72 1497.79,1445.72 1596.86,1445.72 1695.93,1445.72 1795,1445.72 1894.07,1445.72 1993.14,1445.72 2092.2,1445.72 2191.27,1445.72 2290.34,1445.72 2290.34,1355.2 2290.34,1264.68 2290.34,1174.17 2290.34,1083.65 2290.34,993.136 2290.34,902.62 2290.34,812.104 2290.34,721.588 2290.34,631.072 2290.34,540.556 2290.34,506.613 2191.27,506.613 2154.12,540.556 2092.2,597.129 1993.14,597.129 1955.98,631.072 1894.07,687.645 1795,687.645 1695.93,687.645 1658.78,721.588 1596.86,778.16 1497.79,778.16 1398.72,778.16 1336.8,721.588 1299.65,687.645 1200.58,687.645 1138.66,631.072 1101.51,597.129 1064.36,631.072 1002.44,687.645 903.375,687.645 866.224,721.588 804.306,778.16 767.155,812.104 767.155,902.62 705.237,959.192 668.086,993.136 606.168,1049.71 569.017,1083.65 507.099,1140.22 469.948,1174.17 408.03,1230.74 370.879,1264.68 370.879,1355.2 308.961,1411.77 271.81,1445.72 209.891,1445.72 308.961,1445.72 "/>
<polyline clip-path="url(#clip642)" style="stroke:#000003; stroke-linecap:round; stroke-linejoin:round; stroke-width:4; stroke-opacity:1; fill:none" points="308.961,1445.72 408.03,1445.72 507.099,1445.72 606.168,1445.72 705.237,1445.72 804.306,1445.72 903.375,1445.72 1002.44,1445.72 1101.51,1445.72 1200.58,1445.72 1299.65,1445.72 1398.72,1445.72 1497.79,1445.72 1596.86,1445.72 1695.93,1445.72 1795,1445.72 1894.07,1445.72 1993.14,1445.72 2092.2,1445.72 2191.27,1445.72 2290.34,1445.72 2290.34,1355.2 2290.34,1264.68 2290.34,1174.17 2290.34,1083.65 2290.34,993.136 2290.34,902.62 2290.34,812.104 2290.34,721.588 2290.34,631.072 2290.34,540.556 2290.34,512.27 2191.27,512.27 2160.31,540.556 2092.2,602.786 1993.14,602.786 1962.18,631.072 1894.07,693.302 1795,693.302 1695.93,693.302 1664.97,721.588 1596.86,783.818 1497.79,783.818 1398.72,783.818 1330.61,721.588 1299.65,693.302 1200.58,693.302 1132.47,631.072 1101.51,602.786 1070.55,631.072 1002.44,693.302 903.375,693.302 872.416,721.588 804.306,783.818 773.347,812.104 773.347,902.62 705.237,964.85 674.278,993.136 606.168,1055.37 575.209,1083.65 507.099,1145.88 476.14,1174.17 408.03,1236.4 377.071,1264.68 377.071,1355.2 308.961,1417.43 278.001,1445.72 209.891,1445.72 308.961,1445.72 "/>
<polyline clip-path="url(#clip642)" style="stroke:#000003; stroke-linecap:round; stroke-linejoin:round; stroke-width:4; stroke-opacity:1; fill:none" points="308.961,1445.72 408.03,1445.72 507.099,1445.72 606.168,1445.72 705.237,1445.72 804.306,1445.72 903.375,1445.72 1002.44,1445.72 1101.51,1445.72 1200.58,1445.72 1299.65,1445.72 1398.72,1445.72 1497.79,1445.72 1596.86,1445.72 1695.93,1445.72 1795,1445.72 1894.07,1445.72 1993.14,1445.72 2092.2,1445.72 2191.27,1445.72 2290.34,1445.72 2290.34,1355.2 2290.34,1264.68 2290.34,1174.17 2290.34,1083.65 2290.34,993.136 2290.34,902.62 2290.34,812.104 2290.34,721.588 2290.34,631.072 2290.34,540.556 2290.34,517.927 2191.27,517.927 2166.51,540.556 2092.2,608.443 1993.14,608.443 1968.37,631.072 1894.07,698.959 1795,698.959 1695.93,698.959 1671.16,721.588 1596.86,789.475 1497.79,789.475 1398.72,789.475 1324.42,721.588 1299.65,698.959 1200.58,698.959 1126.28,631.072 1101.51,608.443 1076.75,631.072 1002.44,698.959 903.375,698.959 878.608,721.588 804.306,789.475 779.539,812.104 779.539,902.62 705.237,970.507 680.47,993.136 606.168,1061.02 581.401,1083.65 507.099,1151.54 482.331,1174.17 408.03,1242.05 383.262,1264.68 383.262,1355.2 308.961,1423.09 284.193,1445.72 209.891,1445.72 308.961,1445.72 "/>
<polyline clip-path="url(#clip642)" style="stroke:#000003; stroke-linecap:round; stroke-linejoin:round; stroke-width:4; stroke-opacity:1; fill:none" points="308.961,1445.72 408.03,1445.72 507.099,1445.72 606.168,1445.72 705.237,1445.72 804.306,1445.72 903.375,1445.72 1002.44,1445.72 1101.51,1445.72 1200.58,1445.72 1299.65,1445.72 1398.72,1445.72 1497.79,1445.72 1596.86,1445.72 1695.93,1445.72 1795,1445.72 1894.07,1445.72 1993.14,1445.72 2092.2,1445.72 2191.27,1445.72 2290.34,1445.72 2290.34,1355.2 2290.34,1264.68 2290.34,1174.17 2290.34,1083.65 2290.34,993.136 2290.34,902.62 2290.34,812.104 2290.34,721.588 2290.34,631.072 2290.34,540.556 2290.34,523.584 2191.27,523.584 2172.7,540.556 2092.2,614.1 1993.14,614.1 1974.56,631.072 1894.07,704.616 1795,704.616 1695.93,704.616 1677.35,721.588 1596.86,795.132 1497.79,795.132 1398.72,795.132 1318.23,721.588 1299.65,704.616 1200.58,704.616 1120.09,631.072 1101.51,614.1 1082.94,631.072 1002.44,704.616 903.375,704.616 884.8,721.588 804.306,795.132 785.731,812.104 785.731,902.62 705.237,976.164 686.661,993.136 606.168,1066.68 587.592,1083.65 507.099,1157.2 488.523,1174.17 408.03,1247.71 389.454,1264.68 389.454,1355.2 308.961,1428.74 290.385,1445.72 209.891,1445.72 308.961,1445.72 "/>
<polyline clip-path="url(#clip642)" style="stroke:#000003; stroke-linecap:round; stroke-linejoin:round; stroke-width:4; stroke-opacity:1; fill:none" points="308.961,1445.72 408.03,1445.72 507.099,1445.72 606.168,1445.72 705.237,1445.72 804.306,1445.72 903.375,1445.72 1002.44,1445.72 1101.51,1445.72 1200.58,1445.72 1299.65,1445.72 1398.72,1445.72 1497.79,1445.72 1596.86,1445.72 1695.93,1445.72 1795,1445.72 1894.07,1445.72 1993.14,1445.72 2092.2,1445.72 2191.27,1445.72 2290.34,1445.72 2290.34,1355.2 2290.34,1264.68 2290.34,1174.17 2290.34,1083.65 2290.34,993.136 2290.34,902.62 2290.34,812.104 2290.34,721.588 2290.34,631.072 2290.34,540.556 2290.34,529.242 2191.27,529.242 2178.89,540.556 2092.2,619.758 1993.14,619.758 1980.75,631.072 1894.07,710.274 1795,710.274 1695.93,710.274 1683.54,721.588 1596.86,800.789 1497.79,800.789 1398.72,800.789 1312.04,721.588 1299.65,710.274 1200.58,710.274 1113.9,631.072 1101.51,619.758 1089.13,631.072 1002.44,710.274 903.375,710.274 890.991,721.588 804.306,800.789 791.922,812.104 791.922,902.62 705.237,981.821 692.853,993.136 606.168,1072.34 593.784,1083.65 507.099,1162.85 494.715,1174.17 408.03,1253.37 395.646,1264.68 395.646,1355.2 308.961,1434.4 296.577,1445.72 209.891,1445.72 308.961,1445.72 "/>
<polyline clip-path="url(#clip642)" style="stroke:#000003; stroke-linecap:round; stroke-linejoin:round; stroke-width:4; stroke-opacity:1; fill:none" points="308.961,1445.72 408.03,1445.72 507.099,1445.72 606.168,1445.72 705.237,1445.72 804.306,1445.72 903.375,1445.72 1002.44,1445.72 1101.51,1445.72 1200.58,1445.72 1299.65,1445.72 1398.72,1445.72 1497.79,1445.72 1596.86,1445.72 1695.93,1445.72 1795,1445.72 1894.07,1445.72 1993.14,1445.72 2092.2,1445.72 2191.27,1445.72 2290.34,1445.72 2290.34,1355.2 2290.34,1264.68 2290.34,1174.17 2290.34,1083.65 2290.34,993.136 2290.34,902.62 2290.34,812.104 2290.34,721.588 2290.34,631.072 2290.34,540.556 2290.34,534.899 2191.27,534.899 2185.08,540.556 2092.2,625.415 1993.14,625.415 1986.94,631.072 1894.07,715.931 1795,715.931 1695.93,715.931 1689.74,721.588 1596.86,806.447 1497.79,806.447 1398.72,806.447 1305.84,721.588 1299.65,715.931 1200.58,715.931 1107.71,631.072 1101.51,625.415 1095.32,631.072 1002.44,715.931 903.375,715.931 897.183,721.588 804.306,806.447 798.114,812.104 798.114,902.62 705.237,987.479 699.045,993.136 606.168,1077.99 599.976,1083.65 507.099,1168.51 500.907,1174.17 408.03,1259.03 401.838,1264.68 401.838,1355.2 308.961,1440.06 302.769,1445.72 209.891,1445.72 308.961,1445.72 "/>
<circle clip-path="url(#clip642)" cx="686.478" cy="742.079" r="14.4" fill="#0000ff" fill-rule="evenodd" fill-opacity="1" stroke="#000000" stroke-opacity="1" stroke-width="3.2"/>
<circle clip-path="url(#clip642)" cx="870.387" cy="494.706" r="14.4" fill="#0000ff" fill-rule="evenodd" fill-opacity="1" stroke="#000000" stroke-opacity="1" stroke-width="3.2"/>
<circle clip-path="url(#clip642)" cx="1444.76" cy="602.729" r="14.4" fill="#0000ff" fill-rule="evenodd" fill-opacity="1" stroke="#000000" stroke-opacity="1" stroke-width="3.2"/>
<circle clip-path="url(#clip642)" cx="926.142" cy="416.641" r="14.4" fill="#0000ff" fill-rule="evenodd" fill-opacity="1" stroke="#000000" stroke-opacity="1" stroke-width="3.2"/>
<circle clip-path="url(#clip642)" cx="1378.43" cy="566.829" r="14.4" fill="#0000ff" fill-rule="evenodd" fill-opacity="1" stroke="#000000" stroke-opacity="1" stroke-width="3.2"/>
<circle clip-path="url(#clip642)" cx="1055.26" cy="391.733" r="14.4" fill="#0000ff" fill-rule="evenodd" fill-opacity="1" stroke="#000000" stroke-opacity="1" stroke-width="3.2"/>
<circle clip-path="url(#clip642)" cx="924.818" cy="449.265" r="14.4" fill="#0000ff" fill-rule="evenodd" fill-opacity="1" stroke="#000000" stroke-opacity="1" stroke-width="3.2"/>
<circle clip-path="url(#clip642)" cx="1056.46" cy="416.717" r="14.4" fill="#0000ff" fill-rule="evenodd" fill-opacity="1" stroke="#000000" stroke-opacity="1" stroke-width="3.2"/>
<circle clip-path="url(#clip642)" cx="1441.88" cy="570.381" r="14.4" fill="#0000ff" fill-rule="evenodd" fill-opacity="1" stroke="#000000" stroke-opacity="1" stroke-width="3.2"/>
<circle clip-path="url(#clip642)" cx="1358.7" cy="604.89" r="14.4" fill="#0000ff" fill-rule="evenodd" fill-opacity="1" stroke="#000000" stroke-opacity="1" stroke-width="3.2"/>
<circle clip-path="url(#clip642)" cx="1349.66" cy="531.252" r="14.4" fill="#0000ff" fill-rule="evenodd" fill-opacity="1" stroke="#000000" stroke-opacity="1" stroke-width="3.2"/>
<circle clip-path="url(#clip642)" cx="1028.86" cy="410.554" r="14.4" fill="#0000ff" fill-rule="evenodd" fill-opacity="1" stroke="#000000" stroke-opacity="1" stroke-width="3.2"/>
<circle clip-path="url(#clip642)" cx="969.621" cy="410.562" r="14.4" fill="#0000ff" fill-rule="evenodd" fill-opacity="1" stroke="#000000" stroke-opacity="1" stroke-width="3.2"/>
<circle clip-path="url(#clip642)" cx="950.464" cy="452.649" r="14.4" fill="#0000ff" fill-rule="evenodd" fill-opacity="1" stroke="#000000" stroke-opacity="1" stroke-width="3.2"/>
<circle clip-path="url(#clip642)" cx="903.687" cy="455.984" r="14.4" fill="#0000ff" fill-rule="evenodd" fill-opacity="1" stroke="#000000" stroke-opacity="1" stroke-width="3.2"/>
<circle clip-path="url(#clip642)" cx="716.219" cy="711.426" r="14.4" fill="#0000ff" fill-rule="evenodd" fill-opacity="1" stroke="#000000" stroke-opacity="1" stroke-width="3.2"/>
<circle clip-path="url(#clip642)" cx="794.071" cy="570.565" r="14.4" fill="#0000ff" fill-rule="evenodd" fill-opacity="1" stroke="#000000" stroke-opacity="1" stroke-width="3.2"/>
<circle clip-path="url(#clip642)" cx="1406.02" cy="520.409" r="14.4" fill="#0000ff" fill-rule="evenodd" fill-opacity="1" stroke="#000000" stroke-opacity="1" stroke-width="3.2"/>
<circle clip-path="url(#clip642)" cx="731.862" cy="737.167" r="14.4" fill="#0000ff" fill-rule="evenodd" fill-opacity="1" stroke="#000000" stroke-opacity="1" stroke-width="3.2"/>
<circle clip-path="url(#clip642)" cx="1409.25" cy="547.427" r="14.4" fill="#0000ff" fill-rule="evenodd" fill-opacity="1" stroke="#000000" stroke-opacity="1" stroke-width="3.2"/>
<circle clip-path="url(#clip642)" cx="794.582" cy="686.888" r="14.4" fill="#0000ff" fill-rule="evenodd" fill-opacity="1" stroke="#000000" stroke-opacity="1" stroke-width="3.2"/>
<circle clip-path="url(#clip642)" cx="784.05" cy="595.788" r="14.4" fill="#0000ff" fill-rule="evenodd" fill-opacity="1" stroke="#000000" stroke-opacity="1" stroke-width="3.2"/>
<circle clip-path="url(#clip642)" cx="881.409" cy="561.23" r="14.4" fill="#0000ff" fill-rule="evenodd" fill-opacity="1" stroke="#000000" stroke-opacity="1" stroke-width="3.2"/>
<circle clip-path="url(#clip642)" cx="1407.64" cy="493.408" r="14.4" fill="#0000ff" fill-rule="evenodd" fill-opacity="1" stroke="#000000" stroke-opacity="1" stroke-width="3.2"/>
<circle clip-path="url(#clip642)" cx="924.484" cy="444.781" r="14.4" fill="#0000ff" fill-rule="evenodd" fill-opacity="1" stroke="#000000" stroke-opacity="1" stroke-width="3.2"/>
<circle clip-path="url(#clip642)" cx="1100.41" cy="416.27" r="14.4" fill="#0000ff" fill-rule="evenodd" fill-opacity="1" stroke="#000000" stroke-opacity="1" stroke-width="3.2"/>
<circle clip-path="url(#clip642)" cx="1309.74" cy="469.24" r="14.4" fill="#0000ff" fill-rule="evenodd" fill-opacity="1" stroke="#000000" stroke-opacity="1" stroke-width="3.2"/>
<circle clip-path="url(#clip642)" cx="674.054" cy="744.172" r="14.4" fill="#0000ff" fill-rule="evenodd" fill-opacity="1" stroke="#000000" stroke-opacity="1" stroke-width="3.2"/>
<circle clip-path="url(#clip642)" cx="1563.48" cy="705.474" r="14.4" fill="#0000ff" fill-rule="evenodd" fill-opacity="1" stroke="#000000" stroke-opacity="1" stroke-width="3.2"/>
<circle clip-path="url(#clip642)" cx="796.404" cy="533.452" r="14.4" fill="#0000ff" fill-rule="evenodd" fill-opacity="1" stroke="#000000" stroke-opacity="1" stroke-width="3.2"/>
<circle clip-path="url(#clip642)" cx="606.168" cy="747.873" r="14.4" fill="#0000ff" fill-rule="evenodd" fill-opacity="1" stroke="#000000" stroke-opacity="1" stroke-width="3.2"/>
<circle clip-path="url(#clip642)" cx="767.238" cy="528.882" r="14.4" fill="#0000ff" fill-rule="evenodd" fill-opacity="1" stroke="#000000" stroke-opacity="1" stroke-width="3.2"/>
<circle clip-path="url(#clip642)" cx="984.53" cy="420.296" r="14.4" fill="#0000ff" fill-rule="evenodd" fill-opacity="1" stroke="#000000" stroke-opacity="1" stroke-width="3.2"/>
<circle clip-path="url(#clip642)" cx="636.353" cy="762.367" r="14.4" fill="#0000ff" fill-rule="evenodd" fill-opacity="1" stroke="#000000" stroke-opacity="1" stroke-width="3.2"/>
<circle clip-path="url(#clip642)" cx="1488.77" cy="701.053" r="14.4" fill="#0000ff" fill-rule="evenodd" fill-opacity="1" stroke="#000000" stroke-opacity="1" stroke-width="3.2"/>
<circle clip-path="url(#clip642)" cx="852.15" cy="556.957" r="14.4" fill="#0000ff" fill-rule="evenodd" fill-opacity="1" stroke="#000000" stroke-opacity="1" stroke-width="3.2"/>
<circle clip-path="url(#clip642)" cx="728.93" cy="661.238" r="14.4" fill="#0000ff" fill-rule="evenodd" fill-opacity="1" stroke="#000000" stroke-opacity="1" stroke-width="3.2"/>
<circle clip-path="url(#clip642)" cx="988.092" cy="443.23" r="14.4" fill="#0000ff" fill-rule="evenodd" fill-opacity="1" stroke="#000000" stroke-opacity="1" stroke-width="3.2"/>
<circle clip-path="url(#clip642)" cx="1473.43" cy="577.02" r="14.4" fill="#0000ff" fill-rule="evenodd" fill-opacity="1" stroke="#000000" stroke-opacity="1" stroke-width="3.2"/>
<circle clip-path="url(#clip642)" cx="741.748" cy="619.379" r="14.4" fill="#0000ff" fill-rule="evenodd" fill-opacity="1" stroke="#000000" stroke-opacity="1" stroke-width="3.2"/>
<circle clip-path="url(#clip642)" cx="1360.28" cy="458.202" r="14.4" fill="#0000ff" fill-rule="evenodd" fill-opacity="1" stroke="#000000" stroke-opacity="1" stroke-width="3.2"/>
<circle clip-path="url(#clip642)" cx="1478.54" cy="619.863" r="14.4" fill="#0000ff" fill-rule="evenodd" fill-opacity="1" stroke="#000000" stroke-opacity="1" stroke-width="3.2"/>
<circle clip-path="url(#clip642)" cx="805.631" cy="511.666" r="14.4" fill="#0000ff" fill-rule="evenodd" fill-opacity="1" stroke="#000000" stroke-opacity="1" stroke-width="3.2"/>
<circle clip-path="url(#clip642)" cx="1190.49" cy="419.045" r="14.4" fill="#0000ff" fill-rule="evenodd" fill-opacity="1" stroke="#000000" stroke-opacity="1" stroke-width="3.2"/>
<circle clip-path="url(#clip642)" cx="1498.23" cy="717.246" r="14.4" fill="#0000ff" fill-rule="evenodd" fill-opacity="1" stroke="#000000" stroke-opacity="1" stroke-width="3.2"/>
<circle clip-path="url(#clip642)" cx="1503.56" cy="724.93" r="14.4" fill="#0000ff" fill-rule="evenodd" fill-opacity="1" stroke="#000000" stroke-opacity="1" stroke-width="3.2"/>
<circle clip-path="url(#clip642)" cx="1453.71" cy="622.585" r="14.4" fill="#0000ff" fill-rule="evenodd" fill-opacity="1" stroke="#000000" stroke-opacity="1" stroke-width="3.2"/>
<circle clip-path="url(#clip642)" cx="975.429" cy="448.516" r="14.4" fill="#0000ff" fill-rule="evenodd" fill-opacity="1" stroke="#000000" stroke-opacity="1" stroke-width="3.2"/>
<circle clip-path="url(#clip642)" cx="1317.3" cy="464.111" r="14.4" fill="#0000ff" fill-rule="evenodd" fill-opacity="1" stroke="#000000" stroke-opacity="1" stroke-width="3.2"/>
<circle clip-path="url(#clip642)" cx="1509.93" cy="583.146" r="14.4" fill="#0000ff" fill-rule="evenodd" fill-opacity="1" stroke="#000000" stroke-opacity="1" stroke-width="3.2"/>
<circle clip-path="url(#clip642)" cx="871.614" cy="565.27" r="14.4" fill="#0000ff" fill-rule="evenodd" fill-opacity="1" stroke="#000000" stroke-opacity="1" stroke-width="3.2"/>
<circle clip-path="url(#clip642)" cx="860.442" cy="459.556" r="14.4" fill="#0000ff" fill-rule="evenodd" fill-opacity="1" stroke="#000000" stroke-opacity="1" stroke-width="3.2"/>
<circle clip-path="url(#clip642)" cx="760.886" cy="700.83" r="14.4" fill="#0000ff" fill-rule="evenodd" fill-opacity="1" stroke="#000000" stroke-opacity="1" stroke-width="3.2"/>
<circle clip-path="url(#clip642)" cx="1313.5" cy="443.927" r="14.4" fill="#0000ff" fill-rule="evenodd" fill-opacity="1" stroke="#000000" stroke-opacity="1" stroke-width="3.2"/>
<circle clip-path="url(#clip642)" cx="771.281" cy="497.629" r="14.4" fill="#0000ff" fill-rule="evenodd" fill-opacity="1" stroke="#000000" stroke-opacity="1" stroke-width="3.2"/>
<circle clip-path="url(#clip642)" cx="1534.23" cy="680.144" r="14.4" fill="#0000ff" fill-rule="evenodd" fill-opacity="1" stroke="#000000" stroke-opacity="1" stroke-width="3.2"/>
<circle clip-path="url(#clip642)" cx="1386.94" cy="486.456" r="14.4" fill="#0000ff" fill-rule="evenodd" fill-opacity="1" stroke="#000000" stroke-opacity="1" stroke-width="3.2"/>
<circle clip-path="url(#clip642)" cx="909.939" cy="424.902" r="14.4" fill="#0000ff" fill-rule="evenodd" fill-opacity="1" stroke="#000000" stroke-opacity="1" stroke-width="3.2"/>
<circle clip-path="url(#clip642)" cx="1539.88" cy="690.346" r="14.4" fill="#0000ff" fill-rule="evenodd" fill-opacity="1" stroke="#000000" stroke-opacity="1" stroke-width="3.2"/>
<circle clip-path="url(#clip642)" cx="735.625" cy="771.756" r="14.4" fill="#0000ff" fill-rule="evenodd" fill-opacity="1" stroke="#000000" stroke-opacity="1" stroke-width="3.2"/>
<circle clip-path="url(#clip642)" cx="1362.4" cy="541.612" r="14.4" fill="#0000ff" fill-rule="evenodd" fill-opacity="1" stroke="#000000" stroke-opacity="1" stroke-width="3.2"/>
<circle clip-path="url(#clip642)" cx="1393.16" cy="525.647" r="14.4" fill="#0000ff" fill-rule="evenodd" fill-opacity="1" stroke="#000000" stroke-opacity="1" stroke-width="3.2"/>
<circle clip-path="url(#clip642)" cx="748.016" cy="530.179" r="14.4" fill="#0000ff" fill-rule="evenodd" fill-opacity="1" stroke="#000000" stroke-opacity="1" stroke-width="3.2"/>
<circle clip-path="url(#clip642)" cx="849.327" cy="472.59" r="14.4" fill="#0000ff" fill-rule="evenodd" fill-opacity="1" stroke="#000000" stroke-opacity="1" stroke-width="3.2"/>
<circle clip-path="url(#clip642)" cx="818.969" cy="662.815" r="14.4" fill="#0000ff" fill-rule="evenodd" fill-opacity="1" stroke="#000000" stroke-opacity="1" stroke-width="3.2"/>
<circle clip-path="url(#clip642)" cx="611.561" cy="650.056" r="14.4" fill="#0000ff" fill-rule="evenodd" fill-opacity="1" stroke="#000000" stroke-opacity="1" stroke-width="3.2"/>
<circle clip-path="url(#clip642)" cx="1269.86" cy="425.331" r="14.4" fill="#0000ff" fill-rule="evenodd" fill-opacity="1" stroke="#000000" stroke-opacity="1" stroke-width="3.2"/>
<circle clip-path="url(#clip642)" cx="1035.28" cy="437.572" r="14.4" fill="#0000ff" fill-rule="evenodd" fill-opacity="1" stroke="#000000" stroke-opacity="1" stroke-width="3.2"/>
<circle clip-path="url(#clip642)" cx="1096.79" cy="424.824" r="14.4" fill="#0000ff" fill-rule="evenodd" fill-opacity="1" stroke="#000000" stroke-opacity="1" stroke-width="3.2"/>
<circle clip-path="url(#clip642)" cx="1546.13" cy="762.022" r="14.4" fill="#0000ff" fill-rule="evenodd" fill-opacity="1" stroke="#000000" stroke-opacity="1" stroke-width="3.2"/>
<circle clip-path="url(#clip642)" cx="708.352" cy="653.982" r="14.4" fill="#0000ff" fill-rule="evenodd" fill-opacity="1" stroke="#000000" stroke-opacity="1" stroke-width="3.2"/>
<circle clip-path="url(#clip642)" cx="771.745" cy="566.32" r="14.4" fill="#0000ff" fill-rule="evenodd" fill-opacity="1" stroke="#000000" stroke-opacity="1" stroke-width="3.2"/>
<circle clip-path="url(#clip642)" cx="1118.68" cy="403.408" r="14.4" fill="#0000ff" fill-rule="evenodd" fill-opacity="1" stroke="#000000" stroke-opacity="1" stroke-width="3.2"/>
<circle clip-path="url(#clip642)" cx="909.843" cy="430.027" r="14.4" fill="#0000ff" fill-rule="evenodd" fill-opacity="1" stroke="#000000" stroke-opacity="1" stroke-width="3.2"/>
<circle clip-path="url(#clip642)" cx="730.204" cy="622.006" r="14.4" fill="#0000ff" fill-rule="evenodd" fill-opacity="1" stroke="#000000" stroke-opacity="1" stroke-width="3.2"/>
<circle clip-path="url(#clip642)" cx="1250.13" cy="1020.74" r="14.4" fill="#ff0000" fill-rule="evenodd" fill-opacity="1" stroke="#000000" stroke-opacity="1" stroke-width="3.2"/>
<circle clip-path="url(#clip642)" cx="1058.84" cy="862.441" r="14.4" fill="#ff0000" fill-rule="evenodd" fill-opacity="1" stroke="#000000" stroke-opacity="1" stroke-width="3.2"/>
<circle clip-path="url(#clip642)" cx="1127.95" cy="740.675" r="14.4" fill="#ff0000" fill-rule="evenodd" fill-opacity="1" stroke="#000000" stroke-opacity="1" stroke-width="3.2"/>
<circle clip-path="url(#clip642)" cx="1849.72" cy="898.238" r="14.4" fill="#ff0000" fill-rule="evenodd" fill-opacity="1" stroke="#000000" stroke-opacity="1" stroke-width="3.2"/>
<circle clip-path="url(#clip642)" cx="1370.71" cy="980.743" r="14.4" fill="#ff0000" fill-rule="evenodd" fill-opacity="1" stroke="#000000" stroke-opacity="1" stroke-width="3.2"/>
<circle clip-path="url(#clip642)" cx="1156.74" cy="850.237" r="14.4" fill="#ff0000" fill-rule="evenodd" fill-opacity="1" stroke="#000000" stroke-opacity="1" stroke-width="3.2"/>
<circle clip-path="url(#clip642)" cx="1353.44" cy="1008.29" r="14.4" fill="#ff0000" fill-rule="evenodd" fill-opacity="1" stroke="#000000" stroke-opacity="1" stroke-width="3.2"/>
<circle clip-path="url(#clip642)" cx="1726.15" cy="886.76" r="14.4" fill="#ff0000" fill-rule="evenodd" fill-opacity="1" stroke="#000000" stroke-opacity="1" stroke-width="3.2"/>
<circle clip-path="url(#clip642)" cx="1816.15" cy="726.865" r="14.4" fill="#ff0000" fill-rule="evenodd" fill-opacity="1" stroke="#000000" stroke-opacity="1" stroke-width="3.2"/>
<circle clip-path="url(#clip642)" cx="1846.79" cy="806.224" r="14.4" fill="#ff0000" fill-rule="evenodd" fill-opacity="1" stroke="#000000" stroke-opacity="1" stroke-width="3.2"/>
<circle clip-path="url(#clip642)" cx="1102.94" cy="828.074" r="14.4" fill="#ff0000" fill-rule="evenodd" fill-opacity="1" stroke="#000000" stroke-opacity="1" stroke-width="3.2"/>
<circle clip-path="url(#clip642)" cx="1539.66" cy="998.373" r="14.4" fill="#ff0000" fill-rule="evenodd" fill-opacity="1" stroke="#000000" stroke-opacity="1" stroke-width="3.2"/>
<circle clip-path="url(#clip642)" cx="1338.79" cy="973.05" r="14.4" fill="#ff0000" fill-rule="evenodd" fill-opacity="1" stroke="#000000" stroke-opacity="1" stroke-width="3.2"/>
<circle clip-path="url(#clip642)" cx="1394.54" cy="994.245" r="14.4" fill="#ff0000" fill-rule="evenodd" fill-opacity="1" stroke="#000000" stroke-opacity="1" stroke-width="3.2"/>
<circle clip-path="url(#clip642)" cx="1098.23" cy="824.319" r="14.4" fill="#ff0000" fill-rule="evenodd" fill-opacity="1" stroke="#000000" stroke-opacity="1" stroke-width="3.2"/>
<circle clip-path="url(#clip642)" cx="1365.08" cy="1028.93" r="14.4" fill="#ff0000" fill-rule="evenodd" fill-opacity="1" stroke="#000000" stroke-opacity="1" stroke-width="3.2"/>
<circle clip-path="url(#clip642)" cx="1419.4" cy="1042.33" r="14.4" fill="#ff0000" fill-rule="evenodd" fill-opacity="1" stroke="#000000" stroke-opacity="1" stroke-width="3.2"/>
<circle clip-path="url(#clip642)" cx="1391.71" cy="1013.73" r="14.4" fill="#ff0000" fill-rule="evenodd" fill-opacity="1" stroke="#000000" stroke-opacity="1" stroke-width="3.2"/>
<circle clip-path="url(#clip642)" cx="1505.38" cy="1036.38" r="14.4" fill="#ff0000" fill-rule="evenodd" fill-opacity="1" stroke="#000000" stroke-opacity="1" stroke-width="3.2"/>
<circle clip-path="url(#clip642)" cx="1641.87" cy="1036.11" r="14.4" fill="#ff0000" fill-rule="evenodd" fill-opacity="1" stroke="#000000" stroke-opacity="1" stroke-width="3.2"/>
<circle clip-path="url(#clip642)" cx="1668.39" cy="1040.95" r="14.4" fill="#ff0000" fill-rule="evenodd" fill-opacity="1" stroke="#000000" stroke-opacity="1" stroke-width="3.2"/>
<circle clip-path="url(#clip642)" cx="1143.5" cy="754.783" r="14.4" fill="#ff0000" fill-rule="evenodd" fill-opacity="1" stroke="#000000" stroke-opacity="1" stroke-width="3.2"/>
<circle clip-path="url(#clip642)" cx="1366.95" cy="1016.02" r="14.4" fill="#ff0000" fill-rule="evenodd" fill-opacity="1" stroke="#000000" stroke-opacity="1" stroke-width="3.2"/>
<circle clip-path="url(#clip642)" cx="1771.89" cy="936.626" r="14.4" fill="#ff0000" fill-rule="evenodd" fill-opacity="1" stroke="#000000" stroke-opacity="1" stroke-width="3.2"/>
<circle clip-path="url(#clip642)" cx="1409.6" cy="1049.01" r="14.4" fill="#ff0000" fill-rule="evenodd" fill-opacity="1" stroke="#000000" stroke-opacity="1" stroke-width="3.2"/>
<circle clip-path="url(#clip642)" cx="1727.49" cy="1006" r="14.4" fill="#ff0000" fill-rule="evenodd" fill-opacity="1" stroke="#000000" stroke-opacity="1" stroke-width="3.2"/>
<circle clip-path="url(#clip642)" cx="1668.98" cy="936.102" r="14.4" fill="#ff0000" fill-rule="evenodd" fill-opacity="1" stroke="#000000" stroke-opacity="1" stroke-width="3.2"/>
<circle clip-path="url(#clip642)" cx="1429.01" cy="1002.11" r="14.4" fill="#ff0000" fill-rule="evenodd" fill-opacity="1" stroke="#000000" stroke-opacity="1" stroke-width="3.2"/>
<circle clip-path="url(#clip642)" cx="1184" cy="927.21" r="14.4" fill="#ff0000" fill-rule="evenodd" fill-opacity="1" stroke="#000000" stroke-opacity="1" stroke-width="3.2"/>
<circle clip-path="url(#clip642)" cx="1652.55" cy="966.651" r="14.4" fill="#ff0000" fill-rule="evenodd" fill-opacity="1" stroke="#000000" stroke-opacity="1" stroke-width="3.2"/>
<circle clip-path="url(#clip642)" cx="1107.16" cy="706.581" r="14.4" fill="#ff0000" fill-rule="evenodd" fill-opacity="1" stroke="#000000" stroke-opacity="1" stroke-width="3.2"/>
<circle clip-path="url(#clip642)" cx="1266.81" cy="980.054" r="14.4" fill="#ff0000" fill-rule="evenodd" fill-opacity="1" stroke="#000000" stroke-opacity="1" stroke-width="3.2"/>
<circle clip-path="url(#clip642)" cx="1698.69" cy="926.699" r="14.4" fill="#ff0000" fill-rule="evenodd" fill-opacity="1" stroke="#000000" stroke-opacity="1" stroke-width="3.2"/>
<circle clip-path="url(#clip642)" cx="1909.13" cy="726.15" r="14.4" fill="#ff0000" fill-rule="evenodd" fill-opacity="1" stroke="#000000" stroke-opacity="1" stroke-width="3.2"/>
<circle clip-path="url(#clip642)" cx="1582.18" cy="1053.51" r="14.4" fill="#ff0000" fill-rule="evenodd" fill-opacity="1" stroke="#000000" stroke-opacity="1" stroke-width="3.2"/>
<circle clip-path="url(#clip642)" cx="1211.86" cy="956.643" r="14.4" fill="#ff0000" fill-rule="evenodd" fill-opacity="1" stroke="#000000" stroke-opacity="1" stroke-width="3.2"/>
<circle clip-path="url(#clip642)" cx="1102.45" cy="840.337" r="14.4" fill="#ff0000" fill-rule="evenodd" fill-opacity="1" stroke="#000000" stroke-opacity="1" stroke-width="3.2"/>
<circle clip-path="url(#clip642)" cx="1918.94" cy="671.595" r="14.4" fill="#ff0000" fill-rule="evenodd" fill-opacity="1" stroke="#000000" stroke-opacity="1" stroke-width="3.2"/>
<circle clip-path="url(#clip642)" cx="1743.5" cy="1025.64" r="14.4" fill="#ff0000" fill-rule="evenodd" fill-opacity="1" stroke="#000000" stroke-opacity="1" stroke-width="3.2"/>
<circle clip-path="url(#clip642)" cx="1601.01" cy="949.836" r="14.4" fill="#ff0000" fill-rule="evenodd" fill-opacity="1" stroke="#000000" stroke-opacity="1" stroke-width="3.2"/>
<circle clip-path="url(#clip642)" cx="1927.12" cy="818.687" r="14.4" fill="#ff0000" fill-rule="evenodd" fill-opacity="1" stroke="#000000" stroke-opacity="1" stroke-width="3.2"/>
<circle clip-path="url(#clip642)" cx="1161.44" cy="833.989" r="14.4" fill="#ff0000" fill-rule="evenodd" fill-opacity="1" stroke="#000000" stroke-opacity="1" stroke-width="3.2"/>
<circle clip-path="url(#clip642)" cx="1762.16" cy="960.238" r="14.4" fill="#ff0000" fill-rule="evenodd" fill-opacity="1" stroke="#000000" stroke-opacity="1" stroke-width="3.2"/>
<circle clip-path="url(#clip642)" cx="1749.51" cy="946.221" r="14.4" fill="#ff0000" fill-rule="evenodd" fill-opacity="1" stroke="#000000" stroke-opacity="1" stroke-width="3.2"/>
<circle clip-path="url(#clip642)" cx="1484.21" cy="1062.12" r="14.4" fill="#ff0000" fill-rule="evenodd" fill-opacity="1" stroke="#000000" stroke-opacity="1" stroke-width="3.2"/>
<circle clip-path="url(#clip642)" cx="1134.4" cy="807.424" r="14.4" fill="#ff0000" fill-rule="evenodd" fill-opacity="1" stroke="#000000" stroke-opacity="1" stroke-width="3.2"/>
<circle clip-path="url(#clip642)" cx="1792.69" cy="875.055" r="14.4" fill="#ff0000" fill-rule="evenodd" fill-opacity="1" stroke="#000000" stroke-opacity="1" stroke-width="3.2"/>
<circle clip-path="url(#clip642)" cx="1873.2" cy="756.885" r="14.4" fill="#ff0000" fill-rule="evenodd" fill-opacity="1" stroke="#000000" stroke-opacity="1" stroke-width="3.2"/>
<circle clip-path="url(#clip642)" cx="1661.09" cy="1019.06" r="14.4" fill="#ff0000" fill-rule="evenodd" fill-opacity="1" stroke="#000000" stroke-opacity="1" stroke-width="3.2"/>
<circle clip-path="url(#clip642)" cx="1803.82" cy="934.566" r="14.4" fill="#ff0000" fill-rule="evenodd" fill-opacity="1" stroke="#000000" stroke-opacity="1" stroke-width="3.2"/>
<circle clip-path="url(#clip642)" cx="1571.05" cy="1083.65" r="14.4" fill="#ff0000" fill-rule="evenodd" fill-opacity="1" stroke="#000000" stroke-opacity="1" stroke-width="3.2"/>
<circle clip-path="url(#clip642)" cx="1219.37" cy="902.986" r="14.4" fill="#ff0000" fill-rule="evenodd" fill-opacity="1" stroke="#000000" stroke-opacity="1" stroke-width="3.2"/>
<circle clip-path="url(#clip642)" cx="1851.92" cy="916.498" r="14.4" fill="#ff0000" fill-rule="evenodd" fill-opacity="1" stroke="#000000" stroke-opacity="1" stroke-width="3.2"/>
<circle clip-path="url(#clip642)" cx="1827.41" cy="899.025" r="14.4" fill="#ff0000" fill-rule="evenodd" fill-opacity="1" stroke="#000000" stroke-opacity="1" stroke-width="3.2"/>
<circle clip-path="url(#clip642)" cx="1178.45" cy="834.699" r="14.4" fill="#ff0000" fill-rule="evenodd" fill-opacity="1" stroke="#000000" stroke-opacity="1" stroke-width="3.2"/>
<circle clip-path="url(#clip642)" cx="1867.6" cy="718.879" r="14.4" fill="#ff0000" fill-rule="evenodd" fill-opacity="1" stroke="#000000" stroke-opacity="1" stroke-width="3.2"/>
<circle clip-path="url(#clip642)" cx="1740.57" cy="977.286" r="14.4" fill="#ff0000" fill-rule="evenodd" fill-opacity="1" stroke="#000000" stroke-opacity="1" stroke-width="3.2"/>
<circle clip-path="url(#clip642)" cx="1818.2" cy="984.536" r="14.4" fill="#ff0000" fill-rule="evenodd" fill-opacity="1" stroke="#000000" stroke-opacity="1" stroke-width="3.2"/>
<circle clip-path="url(#clip642)" cx="1150.52" cy="776.402" r="14.4" fill="#ff0000" fill-rule="evenodd" fill-opacity="1" stroke="#000000" stroke-opacity="1" stroke-width="3.2"/>
<circle clip-path="url(#clip642)" cx="1465.96" cy="1034.15" r="14.4" fill="#ff0000" fill-rule="evenodd" fill-opacity="1" stroke="#000000" stroke-opacity="1" stroke-width="3.2"/>
<circle clip-path="url(#clip642)" cx="1250.36" cy="1040.03" r="14.4" fill="#ff0000" fill-rule="evenodd" fill-opacity="1" stroke="#000000" stroke-opacity="1" stroke-width="3.2"/>
<circle clip-path="url(#clip642)" cx="1168.02" cy="969.948" r="14.4" fill="#ff0000" fill-rule="evenodd" fill-opacity="1" stroke="#000000" stroke-opacity="1" stroke-width="3.2"/>
<circle clip-path="url(#clip642)" cx="1434.35" cy="1001.55" r="14.4" fill="#ff0000" fill-rule="evenodd" fill-opacity="1" stroke="#000000" stroke-opacity="1" stroke-width="3.2"/>
<circle clip-path="url(#clip642)" cx="1922.89" cy="850.968" r="14.4" fill="#ff0000" fill-rule="evenodd" fill-opacity="1" stroke="#000000" stroke-opacity="1" stroke-width="3.2"/>
<circle clip-path="url(#clip642)" cx="1368.36" cy="1045.37" r="14.4" fill="#ff0000" fill-rule="evenodd" fill-opacity="1" stroke="#000000" stroke-opacity="1" stroke-width="3.2"/>
<circle clip-path="url(#clip642)" cx="1150.39" cy="797.263" r="14.4" fill="#ff0000" fill-rule="evenodd" fill-opacity="1" stroke="#000000" stroke-opacity="1" stroke-width="3.2"/>
<circle clip-path="url(#clip642)" cx="1746.32" cy="965.627" r="14.4" fill="#ff0000" fill-rule="evenodd" fill-opacity="1" stroke="#000000" stroke-opacity="1" stroke-width="3.2"/>
<circle clip-path="url(#clip642)" cx="1120.5" cy="761.286" r="14.4" fill="#ff0000" fill-rule="evenodd" fill-opacity="1" stroke="#000000" stroke-opacity="1" stroke-width="3.2"/>
<circle clip-path="url(#clip642)" cx="1279.72" cy="996.571" r="14.4" fill="#ff0000" fill-rule="evenodd" fill-opacity="1" stroke="#000000" stroke-opacity="1" stroke-width="3.2"/>
<circle clip-path="url(#clip642)" cx="1605.82" cy="970.513" r="14.4" fill="#ff0000" fill-rule="evenodd" fill-opacity="1" stroke="#000000" stroke-opacity="1" stroke-width="3.2"/>
<circle clip-path="url(#clip642)" cx="1239.52" cy="994.695" r="14.4" fill="#ff0000" fill-rule="evenodd" fill-opacity="1" stroke="#000000" stroke-opacity="1" stroke-width="3.2"/>
<circle clip-path="url(#clip642)" cx="1169.74" cy="815.445" r="14.4" fill="#ff0000" fill-rule="evenodd" fill-opacity="1" stroke="#000000" stroke-opacity="1" stroke-width="3.2"/>
<circle clip-path="url(#clip642)" cx="1771.28" cy="915.49" r="14.4" fill="#ff0000" fill-rule="evenodd" fill-opacity="1" stroke="#000000" stroke-opacity="1" stroke-width="3.2"/>
<circle clip-path="url(#clip642)" cx="1066.39" cy="732.521" r="14.4" fill="#ff0000" fill-rule="evenodd" fill-opacity="1" stroke="#000000" stroke-opacity="1" stroke-width="3.2"/>
<circle clip-path="url(#clip642)" cx="1611.47" cy="1018.45" r="14.4" fill="#ff0000" fill-rule="evenodd" fill-opacity="1" stroke="#000000" stroke-opacity="1" stroke-width="3.2"/>
</svg>
